<svg id="visual" viewBox="0 0 900 600" width="900" height="600" xmlns="http://www.w3.org/2000/svg" xmlns:xlink="http://www.w3.org/1999/xlink" version="1.1"><rect x="0" y="0" width="900" height="600" fill="#FFF"></rect><defs><linearGradient id="grad1_0" x1="33.3%" y1="0%" x2="100%" y2="100%"><stop offset="20%" stop-color="#ffffff" stop-opacity="1"></stop><stop offset="80%" stop-color="#ffffff" stop-opacity="1"></stop></linearGradient></defs><defs><linearGradient id="grad2_0" x1="0%" y1="0%" x2="66.7%" y2="100%"><stop offset="20%" stop-color="#ffffff" stop-opacity="1"></stop><stop offset="80%" stop-color="#ffffff" stop-opacity="1"></stop></linearGradient></defs><g transform="translate(900, 0)"><path d="M0 351.5C-31.7 351.5 -63.4 351.5 -91 339.6C-118.6 327.7 -142.2 303.9 -163.5 283.2C-184.8 262.5 -203.9 244.8 -227.7 227.7C-251.5 210.6 -280.1 194.1 -294.4 170C-308.8 145.9 -308.7 114.2 -315.9 84.6C-323 55 -337.3 27.5 -351.5 0L0 0Z" fill="#3251AC"></path></g><g transform="translate(0, 600)"><path d="M0 -351.5C33.7 -354.7 67.5 -358 91 -339.6C114.5 -321.2 127.8 -281.2 152 -263.3C176.2 -245.4 211.2 -249.5 236.9 -236.9C262.6 -224.3 278.9 -194.9 288.4 -166.5C297.9 -138.1 300.7 -110.7 310.1 -83.1C319.5 -55.5 335.5 -27.7 351.5 0L0 0Z" fill="#3251AC"></path></g></svg>