<svg id="visual" viewBox="0 0 900 600" width="900" height="600" xmlns="http://www.w3.org/2000/svg" xmlns:xlink="http://www.w3.org/1999/xlink" version="1.1"><rect x="0" y="0" width="900" height="600" fill="#ffffff"></rect><defs><linearGradient id="grad1_0" x1="33.3%" y1="0%" x2="100%" y2="100%"><stop offset="20%" stop-color="#9f9f9f" stop-opacity="1"></stop><stop offset="80%" stop-color="#9f9f9f" stop-opacity="1"></stop></linearGradient></defs><defs><linearGradient id="grad1_1" x1="33.3%" y1="0%" x2="100%" y2="100%"><stop offset="20%" stop-color="#9f9f9f" stop-opacity="1"></stop><stop offset="80%" stop-color="#acacac" stop-opacity="1"></stop></linearGradient></defs><defs><linearGradient id="grad1_2" x1="33.3%" y1="0%" x2="100%" y2="100%"><stop offset="20%" stop-color="#bababa" stop-opacity="1"></stop><stop offset="80%" stop-color="#acacac" stop-opacity="1"></stop></linearGradient></defs><defs><linearGradient id="grad1_3" x1="33.3%" y1="0%" x2="100%" y2="100%"><stop offset="20%" stop-color="#bababa" stop-opacity="1"></stop><stop offset="80%" stop-color="#c7c7c7" stop-opacity="1"></stop></linearGradient></defs><defs><linearGradient id="grad1_4" x1="33.3%" y1="0%" x2="100%" y2="100%"><stop offset="20%" stop-color="#d5d5d5" stop-opacity="1"></stop><stop offset="80%" stop-color="#c7c7c7" stop-opacity="1"></stop></linearGradient></defs><defs><linearGradient id="grad1_5" x1="33.3%" y1="0%" x2="100%" y2="100%"><stop offset="20%" stop-color="#d5d5d5" stop-opacity="1"></stop><stop offset="80%" stop-color="#e3e3e3" stop-opacity="1"></stop></linearGradient></defs><defs><linearGradient id="grad1_6" x1="33.3%" y1="0%" x2="100%" y2="100%"><stop offset="20%" stop-color="#f1f1f1" stop-opacity="1"></stop><stop offset="80%" stop-color="#e3e3e3" stop-opacity="1"></stop></linearGradient></defs><defs><linearGradient id="grad1_7" x1="33.3%" y1="0%" x2="100%" y2="100%"><stop offset="20%" stop-color="#f1f1f1" stop-opacity="1"></stop><stop offset="80%" stop-color="#ffffff" stop-opacity="1"></stop></linearGradient></defs><defs><linearGradient id="grad2_0" x1="0%" y1="0%" x2="66.7%" y2="100%"><stop offset="20%" stop-color="#9f9f9f" stop-opacity="1"></stop><stop offset="80%" stop-color="#9f9f9f" stop-opacity="1"></stop></linearGradient></defs><defs><linearGradient id="grad2_1" x1="0%" y1="0%" x2="66.7%" y2="100%"><stop offset="20%" stop-color="#acacac" stop-opacity="1"></stop><stop offset="80%" stop-color="#9f9f9f" stop-opacity="1"></stop></linearGradient></defs><defs><linearGradient id="grad2_2" x1="0%" y1="0%" x2="66.7%" y2="100%"><stop offset="20%" stop-color="#acacac" stop-opacity="1"></stop><stop offset="80%" stop-color="#bababa" stop-opacity="1"></stop></linearGradient></defs><defs><linearGradient id="grad2_3" x1="0%" y1="0%" x2="66.7%" y2="100%"><stop offset="20%" stop-color="#c7c7c7" stop-opacity="1"></stop><stop offset="80%" stop-color="#bababa" stop-opacity="1"></stop></linearGradient></defs><defs><linearGradient id="grad2_4" x1="0%" y1="0%" x2="66.7%" y2="100%"><stop offset="20%" stop-color="#c7c7c7" stop-opacity="1"></stop><stop offset="80%" stop-color="#d5d5d5" stop-opacity="1"></stop></linearGradient></defs><defs><linearGradient id="grad2_5" x1="0%" y1="0%" x2="66.7%" y2="100%"><stop offset="20%" stop-color="#e3e3e3" stop-opacity="1"></stop><stop offset="80%" stop-color="#d5d5d5" stop-opacity="1"></stop></linearGradient></defs><defs><linearGradient id="grad2_6" x1="0%" y1="0%" x2="66.7%" y2="100%"><stop offset="20%" stop-color="#e3e3e3" stop-opacity="1"></stop><stop offset="80%" stop-color="#f1f1f1" stop-opacity="1"></stop></linearGradient></defs><defs><linearGradient id="grad2_7" x1="0%" y1="0%" x2="66.7%" y2="100%"><stop offset="20%" stop-color="#ffffff" stop-opacity="1"></stop><stop offset="80%" stop-color="#f1f1f1" stop-opacity="1"></stop></linearGradient></defs><g transform="translate(900, 0)"><path d="M0 432.7C-28.9 397.2 -57.8 361.7 -94.5 352.6C-131.1 343.5 -175.5 360.8 -197 341.2C-218.5 321.7 -217.3 265.3 -236.9 236.9C-256.5 208.5 -297 208 -333.4 192.5C-369.8 177 -402.1 146.6 -417.9 112C-433.8 77.4 -433.2 38.7 -432.7 0L0 0Z" fill="#f8f8f8"></path><path d="M0 378.6C-25.3 347.5 -50.6 316.5 -82.7 308.5C-114.7 300.5 -153.5 315.7 -172.4 298.6C-191.2 281.5 -190.1 232.1 -207.3 207.3C-224.4 182.4 -259.9 182 -291.7 168.4C-323.6 154.9 -351.8 128.2 -365.7 98C-379.6 67.7 -379.1 33.9 -378.6 0L0 0Z" fill="#eaeaea"></path><path d="M0 324.5C-21.7 297.9 -43.4 271.2 -70.9 264.4C-98.3 257.6 -131.6 270.6 -147.7 255.9C-163.9 241.3 -162.9 199 -177.7 177.7C-192.4 156.3 -222.8 156 -250.1 144.4C-277.4 132.8 -301.6 109.9 -313.4 84C-325.3 58.1 -324.9 29 -324.5 0L0 0Z" fill="#dcdcdc"></path><path d="M0 270.4C-18.1 248.2 -36.1 226 -59 220.4C-81.9 214.7 -109.7 225.5 -123.1 213.3C-136.6 201 -135.8 165.8 -148.1 148.1C-160.3 130.3 -185.6 130 -208.4 120.3C-231.1 110.6 -251.3 91.6 -261.2 70C-271.1 48.4 -270.8 24.2 -270.4 0L0 0Z" fill="#cecece"></path><path d="M0 216.3C-14.5 198.6 -28.9 180.8 -47.2 176.3C-65.6 171.7 -87.7 180.4 -98.5 170.6C-109.3 160.8 -108.6 132.7 -118.4 118.4C-128.3 104.2 -148.5 104 -166.7 96.3C-184.9 88.5 -201 73.3 -209 56C-216.9 38.7 -216.6 19.4 -216.3 0L0 0Z" fill="#c0c0c0"></path><path d="M0 162.2C-10.8 148.9 -21.7 135.6 -35.4 132.2C-49.2 128.8 -65.8 135.3 -73.9 128C-82 120.6 -81.5 99.5 -88.8 88.8C-96.2 78.2 -111.4 78 -125 72.2C-138.7 66.4 -150.8 55 -156.7 42C-162.7 29 -162.5 14.5 -162.2 0L0 0Z" fill="#b3b3b3"></path><path d="M0 108.2C-7.2 99.3 -14.5 90.4 -23.6 88.1C-32.8 85.9 -43.9 90.2 -49.2 85.3C-54.6 80.4 -54.3 66.3 -59.2 59.2C-64.1 52.1 -74.3 52 -83.4 48.1C-92.5 44.3 -100.5 36.6 -104.5 28C-108.4 19.4 -108.3 9.7 -108.2 0L0 0Z" fill="#a6a6a6"></path><path d="M0 54.1C-3.6 49.6 -7.2 45.2 -11.8 44.1C-16.4 42.9 -21.9 45.1 -24.6 42.7C-27.3 40.2 -27.2 33.2 -29.6 29.6C-32.1 26.1 -37.1 26 -41.7 24.1C-46.2 22.1 -50.3 18.3 -52.2 14C-54.2 9.7 -54.2 4.8 -54.1 0L0 0Z" fill="#9f9f9f"></path></g><g transform="translate(0, 600)"><path d="M0 -432.7C30.5 -390.6 61 -348.5 87.5 -326.5C113.9 -304.5 136.3 -302.7 178 -308.3C219.7 -314 280.8 -327.1 305.9 -305.9C331 -284.8 320.1 -229.3 333.4 -192.5C346.7 -155.7 384.2 -137.4 404.7 -108.4C425.3 -79.5 429 -39.7 432.7 0L0 0Z" fill="#f8f8f8"></path><path d="M0 -378.6C26.7 -341.7 53.4 -304.9 76.5 -285.7C99.7 -266.4 119.2 -264.8 155.7 -269.8C192.3 -274.7 245.7 -286.2 267.7 -267.7C289.7 -249.2 280.1 -200.7 291.7 -168.4C303.4 -136.2 336.1 -120.2 354.1 -94.9C372.1 -69.5 375.4 -34.8 378.6 0L0 0Z" fill="#eaeaea"></path><path d="M0 -324.5C22.9 -292.9 45.8 -261.3 65.6 -244.9C85.4 -228.4 102.2 -227 133.5 -231.2C164.8 -235.5 210.6 -245.3 229.5 -229.5C248.3 -213.6 240.1 -172 250.1 -144.4C260 -116.7 288.1 -103.1 303.5 -81.3C319 -59.6 321.7 -29.8 324.5 0L0 0Z" fill="#dcdcdc"></path><path d="M0 -270.4C19.1 -244.1 38.2 -217.8 54.7 -204.1C71.2 -190.3 85.2 -189.2 111.2 -192.7C137.3 -196.2 175.5 -204.4 191.2 -191.2C206.9 -178 200.1 -143.3 208.4 -120.3C216.7 -97.3 240.1 -85.9 253 -67.8C265.8 -49.7 268.1 -24.8 270.4 0L0 0Z" fill="#cecece"></path><path d="M0 -216.3C15.3 -195.3 30.5 -174.2 43.7 -163.2C57 -152.3 68.1 -151.3 89 -154.2C109.9 -157 140.4 -163.5 153 -153C165.5 -142.4 160.1 -114.7 166.7 -96.3C173.3 -77.8 192.1 -68.7 202.4 -54.2C212.6 -39.7 214.5 -19.9 216.3 0L0 0Z" fill="#c0c0c0"></path><path d="M0 -162.2C11.4 -146.5 22.9 -130.7 32.8 -122.4C42.7 -114.2 51.1 -113.5 66.7 -115.6C82.4 -117.7 105.3 -122.7 114.7 -114.7C124.1 -106.8 120.1 -86 125 -72.2C130 -58.4 144.1 -51.5 151.8 -40.7C159.5 -29.8 160.9 -14.9 162.2 0L0 0Z" fill="#b3b3b3"></path><path d="M0 -108.2C7.6 -97.6 15.3 -87.1 21.9 -81.6C28.5 -76.1 34.1 -75.7 44.5 -77.1C54.9 -78.5 70.2 -81.8 76.5 -76.5C82.8 -71.2 80 -57.3 83.4 -48.1C86.7 -38.9 96 -34.4 101.2 -27.1C106.3 -19.9 107.2 -9.9 108.2 0L0 0Z" fill="#a6a6a6"></path><path d="M0 -54.1C3.8 -48.8 7.6 -43.6 10.9 -40.8C14.2 -38.1 17 -37.8 22.2 -38.5C27.5 -39.2 35.1 -40.9 38.2 -38.2C41.4 -35.6 40 -28.7 41.7 -24.1C43.3 -19.5 48 -17.2 50.6 -13.6C53.2 -9.9 53.6 -5 54.1 0L0 0Z" fill="#9f9f9f"></path></g></svg>