<svg id="visual" viewBox="0 0 900 600" width="900" height="600" xmlns="http://www.w3.org/2000/svg" xmlns:xlink="http://www.w3.org/1999/xlink" version="1.1"><rect x="0" y="0" width="900" height="600" fill="#FFF"></rect><defs><linearGradient id="grad1_0" x1="33.3%" y1="0%" x2="100%" y2="100%"><stop offset="20%" stop-color="#ffffff" stop-opacity="1"></stop><stop offset="80%" stop-color="#ffffff" stop-opacity="1"></stop></linearGradient></defs><defs><linearGradient id="grad2_0" x1="0%" y1="0%" x2="66.7%" y2="100%"><stop offset="20%" stop-color="#ffffff" stop-opacity="1"></stop><stop offset="80%" stop-color="#ffffff" stop-opacity="1"></stop></linearGradient></defs><g transform="translate(900, 0)"><path d="M0 486.7C-38.7 445.8 -77.4 404.9 -128.9 396.6C-180.3 388.3 -244.4 412.5 -286.1 393.8C-327.8 375.1 -347.2 313.4 -362.4 263.3C-377.7 213.3 -388.9 174.8 -409 132.9C-429 90.9 -457.9 45.5 -486.7 0L0 0Z" fill="#3251AC"></path></g><g transform="translate(0, 600)"><path d="M0 -486.7C44.1 -457.1 88.3 -427.5 132.3 -407.1C176.2 -386.6 220 -375.5 255.7 -351.9C291.4 -328.4 318.9 -292.4 356 -258.6C393 -224.8 439.5 -193.2 462.9 -150.4C486.3 -107.7 486.5 -53.8 486.7 0L0 0Z" fill="#3251AC"></path></g></svg>