<svg id="visual" viewBox="0 0 600 900" width="600" height="900" xmlns="http://www.w3.org/2000/svg" xmlns:xlink="http://www.w3.org/1999/xlink" version="1.1"><rect x="0" y="0" width="600" height="900" fill="#ffffff"></rect><defs><linearGradient id="grad1_0" x1="0%" y1="0%" x2="100%" y2="100%"><stop offset="30%" stop-color="#fbae3c" stop-opacity="1"></stop><stop offset="70%" stop-color="#fbae3c" stop-opacity="1"></stop></linearGradient></defs><defs><linearGradient id="grad1_1" x1="0%" y1="0%" x2="100%" y2="100%"><stop offset="30%" stop-color="#fbae3c" stop-opacity="1"></stop><stop offset="70%" stop-color="#ffbe66" stop-opacity="1"></stop></linearGradient></defs><defs><linearGradient id="grad1_2" x1="0%" y1="0%" x2="100%" y2="100%"><stop offset="30%" stop-color="#ffce8c" stop-opacity="1"></stop><stop offset="70%" stop-color="#ffbe66" stop-opacity="1"></stop></linearGradient></defs><defs><linearGradient id="grad1_3" x1="0%" y1="0%" x2="100%" y2="100%"><stop offset="30%" stop-color="#ffce8c" stop-opacity="1"></stop><stop offset="70%" stop-color="#ffdeb2" stop-opacity="1"></stop></linearGradient></defs><defs><linearGradient id="grad1_4" x1="0%" y1="0%" x2="100%" y2="100%"><stop offset="30%" stop-color="#ffeed8" stop-opacity="1"></stop><stop offset="70%" stop-color="#ffdeb2" stop-opacity="1"></stop></linearGradient></defs><defs><linearGradient id="grad1_5" x1="0%" y1="0%" x2="100%" y2="100%"><stop offset="30%" stop-color="#ffeed8" stop-opacity="1"></stop><stop offset="70%" stop-color="#ffffff" stop-opacity="1"></stop></linearGradient></defs><defs><linearGradient id="grad2_0" x1="0%" y1="0%" x2="100%" y2="100%"><stop offset="30%" stop-color="#fbae3c" stop-opacity="1"></stop><stop offset="70%" stop-color="#fbae3c" stop-opacity="1"></stop></linearGradient></defs><defs><linearGradient id="grad2_1" x1="0%" y1="0%" x2="100%" y2="100%"><stop offset="30%" stop-color="#ffbe66" stop-opacity="1"></stop><stop offset="70%" stop-color="#fbae3c" stop-opacity="1"></stop></linearGradient></defs><defs><linearGradient id="grad2_2" x1="0%" y1="0%" x2="100%" y2="100%"><stop offset="30%" stop-color="#ffbe66" stop-opacity="1"></stop><stop offset="70%" stop-color="#ffce8c" stop-opacity="1"></stop></linearGradient></defs><defs><linearGradient id="grad2_3" x1="0%" y1="0%" x2="100%" y2="100%"><stop offset="30%" stop-color="#ffdeb2" stop-opacity="1"></stop><stop offset="70%" stop-color="#ffce8c" stop-opacity="1"></stop></linearGradient></defs><defs><linearGradient id="grad2_4" x1="0%" y1="0%" x2="100%" y2="100%"><stop offset="30%" stop-color="#ffdeb2" stop-opacity="1"></stop><stop offset="70%" stop-color="#ffeed8" stop-opacity="1"></stop></linearGradient></defs><defs><linearGradient id="grad2_5" x1="0%" y1="0%" x2="100%" y2="100%"><stop offset="30%" stop-color="#ffffff" stop-opacity="1"></stop><stop offset="70%" stop-color="#ffeed8" stop-opacity="1"></stop></linearGradient></defs><g transform="translate(600, 0)"><path d="M0 486.7C-44.9 464.6 -89.7 442.5 -138.7 427C-187.8 411.5 -241 402.6 -268 368.9C-295.1 335.3 -296 276.9 -330.1 239.8C-364.1 202.7 -431.3 186.8 -462.9 150.4C-494.6 114 -490.7 57 -486.7 0L0 0Z" fill="#fff7ec"></path><path d="M0 405.6C-37.4 387.2 -74.8 368.8 -115.6 355.9C-156.5 342.9 -200.8 335.5 -223.4 307.4C-245.9 279.4 -246.7 230.8 -275.1 199.8C-303.4 168.9 -359.4 155.7 -385.8 125.3C-412.1 95 -408.9 47.5 -405.6 0L0 0Z" fill="#ffe6c5"></path><path d="M0 324.5C-29.9 309.8 -59.8 295 -92.5 284.7C-125.2 274.3 -160.6 268.4 -178.7 245.9C-196.7 223.5 -197.4 184.6 -220.1 159.9C-242.8 135.1 -287.5 124.6 -308.6 100.3C-329.7 76 -327.1 38 -324.5 0L0 0Z" fill="#ffd69f"></path><path d="M0 243.4C-22.4 232.3 -44.9 221.3 -69.4 213.5C-93.9 205.8 -120.5 201.3 -134 184.5C-147.5 167.6 -148 138.5 -165 119.9C-182.1 101.4 -215.6 93.4 -231.5 75.2C-247.3 57 -245.3 28.5 -243.4 0L0 0Z" fill="#ffc679"></path><path d="M0 162.2C-15 154.9 -29.9 147.5 -46.2 142.3C-62.6 137.2 -80.3 134.2 -89.3 123C-98.4 111.8 -98.7 92.3 -110 79.9C-121.4 67.6 -143.8 62.3 -154.3 50.1C-164.9 38 -163.6 19 -162.2 0L0 0Z" fill="#feb652"></path><path d="M0 81.1C-7.5 77.4 -15 73.8 -23.1 71.2C-31.3 68.6 -40.2 67.1 -44.7 61.5C-49.2 55.9 -49.3 46.2 -55 40C-60.7 33.8 -71.9 31.1 -77.2 25.1C-82.4 19 -81.8 9.5 -81.1 0L0 0Z" fill="#fbae3c"></path></g><g transform="translate(0, 900)"><path d="M0 -486.7C49.1 -478.9 98.1 -471 149.3 -459.4C200.4 -447.7 253.6 -432.2 286.1 -393.8C318.6 -355.4 330.5 -294.2 337.4 -245.1C344.2 -196 345.9 -159 370 -120.2C394 -81.4 440.4 -40.7 486.7 0L0 0Z" fill="#fff7ec"></path><path d="M0 -405.6C40.9 -399.1 81.8 -392.5 124.4 -382.8C167 -373.1 211.3 -360.1 238.4 -328.2C265.5 -296.2 275.5 -245.2 281.1 -204.3C286.8 -163.3 288.3 -132.5 308.3 -100.2C328.3 -67.8 367 -33.9 405.6 0L0 0Z" fill="#ffe6c5"></path><path d="M0 -324.5C32.7 -319.3 65.4 -314 99.5 -306.2C133.6 -298.5 169 -288.1 190.7 -262.5C212.4 -236.9 220.4 -196.1 224.9 -163.4C229.5 -130.7 230.6 -106 246.6 -80.1C262.7 -54.3 293.6 -27.1 324.5 0L0 0Z" fill="#ffd69f"></path><path d="M0 -243.4C24.5 -239.4 49.1 -235.5 74.6 -229.7C100.2 -223.8 126.8 -216.1 143.1 -196.9C159.3 -177.7 165.3 -147.1 168.7 -122.6C172.1 -98 173 -79.5 185 -60.1C197 -40.7 220.2 -20.3 243.4 0L0 0Z" fill="#ffc679"></path><path d="M0 -162.2C16.4 -159.6 32.7 -157 49.8 -153.1C66.8 -149.2 84.5 -144.1 95.4 -131.3C106.2 -118.5 110.2 -98.1 112.5 -81.7C114.7 -65.3 115.3 -53 123.3 -40.1C131.3 -27.1 146.8 -13.6 162.2 0L0 0Z" fill="#feb652"></path><path d="M0 -81.1C8.2 -79.8 16.4 -78.5 24.9 -76.6C33.4 -74.6 42.3 -72 47.7 -65.6C53.1 -59.2 55.1 -49 56.2 -40.9C57.4 -32.7 57.7 -26.5 61.7 -20C65.7 -13.6 73.4 -6.8 81.1 0L0 0Z" fill="#fbae3c"></path></g></svg>