<svg id="visual" viewBox="0 0 900 600" width="900" height="600" xmlns="http://www.w3.org/2000/svg" xmlns:xlink="http://www.w3.org/1999/xlink" version="1.1"><rect x="0" y="0" width="900" height="600" fill="#FFF"></rect><defs><linearGradient id="grad1_0" x1="33.3%" y1="0%" x2="100%" y2="100%"><stop offset="20%" stop-color="#3251ac" stop-opacity="1"></stop><stop offset="80%" stop-color="#3251ac" stop-opacity="1"></stop></linearGradient></defs><defs><linearGradient id="grad1_1" x1="33.3%" y1="0%" x2="100%" y2="100%"><stop offset="20%" stop-color="#3251ac" stop-opacity="1"></stop><stop offset="80%" stop-color="#6470bd" stop-opacity="1"></stop></linearGradient></defs><defs><linearGradient id="grad1_2" x1="33.3%" y1="0%" x2="100%" y2="100%"><stop offset="20%" stop-color="#8d92ce" stop-opacity="1"></stop><stop offset="80%" stop-color="#6470bd" stop-opacity="1"></stop></linearGradient></defs><defs><linearGradient id="grad1_3" x1="33.3%" y1="0%" x2="100%" y2="100%"><stop offset="20%" stop-color="#8d92ce" stop-opacity="1"></stop><stop offset="80%" stop-color="#b4b5de" stop-opacity="1"></stop></linearGradient></defs><defs><linearGradient id="grad1_4" x1="33.3%" y1="0%" x2="100%" y2="100%"><stop offset="20%" stop-color="#d9d9ef" stop-opacity="1"></stop><stop offset="80%" stop-color="#b4b5de" stop-opacity="1"></stop></linearGradient></defs><defs><linearGradient id="grad1_5" x1="33.3%" y1="0%" x2="100%" y2="100%"><stop offset="20%" stop-color="#d9d9ef" stop-opacity="1"></stop><stop offset="80%" stop-color="#ffffff" stop-opacity="1"></stop></linearGradient></defs><defs><linearGradient id="grad2_0" x1="0%" y1="0%" x2="66.7%" y2="100%"><stop offset="20%" stop-color="#3251ac" stop-opacity="1"></stop><stop offset="80%" stop-color="#3251ac" stop-opacity="1"></stop></linearGradient></defs><defs><linearGradient id="grad2_1" x1="0%" y1="0%" x2="66.7%" y2="100%"><stop offset="20%" stop-color="#6470bd" stop-opacity="1"></stop><stop offset="80%" stop-color="#3251ac" stop-opacity="1"></stop></linearGradient></defs><defs><linearGradient id="grad2_2" x1="0%" y1="0%" x2="66.7%" y2="100%"><stop offset="20%" stop-color="#6470bd" stop-opacity="1"></stop><stop offset="80%" stop-color="#8d92ce" stop-opacity="1"></stop></linearGradient></defs><defs><linearGradient id="grad2_3" x1="0%" y1="0%" x2="66.7%" y2="100%"><stop offset="20%" stop-color="#b4b5de" stop-opacity="1"></stop><stop offset="80%" stop-color="#8d92ce" stop-opacity="1"></stop></linearGradient></defs><defs><linearGradient id="grad2_4" x1="0%" y1="0%" x2="66.7%" y2="100%"><stop offset="20%" stop-color="#b4b5de" stop-opacity="1"></stop><stop offset="80%" stop-color="#d9d9ef" stop-opacity="1"></stop></linearGradient></defs><defs><linearGradient id="grad2_5" x1="0%" y1="0%" x2="66.7%" y2="100%"><stop offset="20%" stop-color="#ffffff" stop-opacity="1"></stop><stop offset="80%" stop-color="#d9d9ef" stop-opacity="1"></stop></linearGradient></defs><g transform="translate(900, 0)"><path d="M0 351.5C-45.1 346.2 -90.1 340.9 -134.5 324.8C-178.9 308.7 -222.7 281.7 -244 244C-265.2 206.2 -263.9 157.6 -278.1 115.2C-292.3 72.7 -321.9 36.4 -351.5 0L0 0Z" fill="#ececf7"></path><path d="M0 293C-37.5 288.5 -75.1 284.1 -112.1 270.7C-149.1 257.2 -185.6 234.8 -203.3 203.3C-221 171.8 -219.9 131.4 -231.7 96C-243.6 60.6 -268.3 30.3 -293 0L0 0Z" fill="#c7c7e7"></path><path d="M0 234.4C-30 230.8 -60.1 227.3 -89.7 216.5C-119.3 205.8 -148.5 187.8 -162.6 162.6C-176.8 137.5 -175.9 105.1 -185.4 76.8C-194.8 48.5 -214.6 24.2 -234.4 0L0 0Z" fill="#a1a3d6"></path><path d="M0 175.8C-22.5 173.1 -45.1 170.5 -67.3 162.4C-89.5 154.3 -111.4 140.9 -122 122C-132.6 103.1 -132 78.8 -139 57.6C-146.1 36.4 -161 18.2 -175.8 0L0 0Z" fill="#7981c5"></path><path d="M0 117.2C-15 115.4 -30 113.6 -44.8 108.3C-59.6 102.9 -74.2 93.9 -81.3 81.3C-88.4 68.7 -88 52.5 -92.7 38.4C-97.4 24.2 -107.3 12.1 -117.2 0L0 0Z" fill="#4e60b4"></path><path d="M0 58.6C-7.5 57.7 -15 56.8 -22.4 54.1C-29.8 51.4 -37.1 47 -40.7 40.7C-44.2 34.4 -44 26.3 -46.3 19.2C-48.7 12.1 -53.7 6.1 -58.6 0L0 0Z" fill="#3251ac"></path></g><g transform="translate(0, 600)"><path d="M0 -351.5C49.1 -350.4 98.2 -349.2 134.5 -324.8C170.9 -300.3 194.4 -252.6 214.3 -214.3C234.1 -175.9 250.3 -147 272.5 -112.9C294.8 -78.8 323.2 -39.4 351.5 0L0 0Z" fill="#ececf7"></path><path d="M0 -293C40.9 -292 81.8 -291 112.1 -270.7C142.4 -250.3 162 -210.5 178.5 -178.5C195.1 -146.6 208.6 -122.5 227.1 -94.1C245.7 -65.6 269.3 -32.8 293 0L0 0Z" fill="#c7c7e7"></path><path d="M0 -234.4C32.7 -233.6 65.5 -232.8 89.7 -216.5C113.9 -200.2 129.6 -168.4 142.8 -142.8C156.1 -117.3 166.9 -98 181.7 -75.3C196.5 -52.5 215.5 -26.3 234.4 0L0 0Z" fill="#a1a3d6"></path><path d="M0 -175.8C24.6 -175.2 49.1 -174.6 67.3 -162.4C85.4 -150.2 97.2 -126.3 107.1 -107.1C117.1 -88 125.1 -73.5 136.3 -56.4C147.4 -39.4 161.6 -19.7 175.8 0L0 0Z" fill="#7981c5"></path><path d="M0 -117.2C16.4 -116.8 32.7 -116.4 44.8 -108.3C57 -100.1 64.8 -84.2 71.4 -71.4C78 -58.6 83.4 -49 90.8 -37.6C98.3 -26.3 107.7 -13.1 117.2 0L0 0Z" fill="#4e60b4"></path><path d="M0 -58.6C8.2 -58.4 16.4 -58.2 22.4 -54.1C28.5 -50.1 32.4 -42.1 35.7 -35.7C39 -29.3 41.7 -24.5 45.4 -18.8C49.1 -13.1 53.9 -6.6 58.6 0L0 0Z" fill="#3251ac"></path></g></svg>