<svg id="visual" viewBox="0 0 900 600" width="900" height="600" xmlns="http://www.w3.org/2000/svg" xmlns:xlink="http://www.w3.org/1999/xlink" version="1.1"><rect x="0" y="0" width="900" height="600" fill="#FFF"></rect><path d="M0 426L21.5 430.8C43 435.7 86 445.3 128.8 443.5C171.7 441.7 214.3 428.3 257.2 421.5C300 414.7 343 414.3 385.8 423.7C428.7 433 471.3 452 514.2 453.5C557 455 600 439 642.8 428C685.7 417 728.3 411 771.2 418.5C814 426 857 447 878.5 457.5L900 468L900 601L878.5 601C857 601 814 601 771.2 601C728.3 601 685.7 601 642.8 601C600 601 557 601 514.2 601C471.3 601 428.7 601 385.8 601C343 601 300 601 257.2 601C214.3 601 171.7 601 128.8 601C86 601 43 601 21.5 601L0 601Z" fill="#697cc4"></path><path d="M0 480L21.5 473.8C43 467.7 86 455.3 128.8 448.5C171.7 441.7 214.3 440.3 257.2 447.3C300 454.3 343 469.7 385.8 476.8C428.7 484 471.3 483 514.2 486C557 489 600 496 642.8 492.7C685.7 489.3 728.3 475.7 771.2 470.3C814 465 857 468 878.5 469.5L900 471L900 601L878.5 601C857 601 814 601 771.2 601C728.3 601 685.7 601 642.8 601C600 601 557 601 514.2 601C471.3 601 428.7 601 385.8 601C343 601 300 601 257.2 601C214.3 601 171.7 601 128.8 601C86 601 43 601 21.5 601L0 601Z" fill="#4f66b8"></path><path d="M0 527L21.5 525.2C43 523.3 86 519.7 128.8 515.5C171.7 511.3 214.3 506.7 257.2 505.7C300 504.7 343 507.3 385.8 508.3C428.7 509.3 471.3 508.7 514.2 503.2C557 497.7 600 487.3 642.8 484.2C685.7 481 728.3 485 771.2 484.5C814 484 857 479 878.5 476.5L900 474L900 601L878.5 601C857 601 814 601 771.2 601C728.3 601 685.7 601 642.8 601C600 601 557 601 514.2 601C471.3 601 428.7 601 385.8 601C343 601 300 601 257.2 601C214.3 601 171.7 601 128.8 601C86 601 43 601 21.5 601L0 601Z" fill="#3150ab"></path><path d="M0 530L21.5 531.5C43 533 86 536 128.8 538.3C171.7 540.7 214.3 542.3 257.2 540.7C300 539 343 534 385.8 531.7C428.7 529.3 471.3 529.7 514.2 533C557 536.3 600 542.7 642.8 538.5C685.7 534.3 728.3 519.7 771.2 516C814 512.3 857 519.7 878.5 523.3L900 527L900 601L878.5 601C857 601 814 601 771.2 601C728.3 601 685.7 601 642.8 601C600 601 557 601 514.2 601C471.3 601 428.7 601 385.8 601C343 601 300 601 257.2 601C214.3 601 171.7 601 128.8 601C86 601 43 601 21.5 601L0 601Z" fill="#294594"></path><path d="M0 539L21.5 542.5C43 546 86 553 128.8 553.2C171.7 553.3 214.3 546.7 257.2 549C300 551.3 343 562.7 385.8 563.8C428.7 565 471.3 556 514.2 550.3C557 544.7 600 542.3 642.8 543.5C685.7 544.7 728.3 549.3 771.2 551.2C814 553 857 552 878.5 551.5L900 551L900 601L878.5 601C857 601 814 601 771.2 601C728.3 601 685.7 601 642.8 601C600 601 557 601 514.2 601C471.3 601 428.7 601 385.8 601C343 601 300 601 257.2 601C214.3 601 171.7 601 128.8 601C86 601 43 601 21.5 601L0 601Z" fill="#213b7e"></path></svg>