<?xml version="1.0" standalone="no"?>
<!DOCTYPE svg PUBLIC "-//W3C//DTD SVG 20010904//EN"
 "http://www.w3.org/TR/2001/REC-SVG-20010904/DTD/svg10.dtd">
<svg version="1.0" xmlns="http://www.w3.org/2000/svg"
 width="5906.000000pt" height="5906.000000pt" viewBox="0 0 5906.000000 5906.000000"
 preserveAspectRatio="xMidYMid meet">

<g transform="translate(0.000000,5906.000000) scale(0.100000,-0.100000)"
fill="#000000" stroke="none">
<path d="M30325 48174 c-305 -47 -702 -187 -1378 -488 -405 -180 -575 -222
-877 -213 -204 5 -286 23 -420 88 -65 32 -102 59 -156 114 -90 90 -131 172
-181 358 l-37 138 -91 -140 c-51 -77 -105 -166 -120 -198 -77 -162 -131 -342
-142 -471 l-6 -73 -29 27 c-34 34 -34 31 -4 -50 14 -35 32 -104 41 -153 50
-268 203 -461 473 -597 35 -18 50 -31 46 -39 -23 -38 -146 -176 -227 -253
-308 -295 -710 -493 -1114 -549 -65 -9 -119 -18 -121 -20 -7 -7 219 -202 271
-233 126 -76 284 -129 466 -157 52 -8 96 -17 99 -20 10 -10 -173 -180 -263
-244 -108 -76 -295 -168 -426 -210 -173 -54 -280 -72 -466 -78 -95 -3 -173 -7
-173 -9 0 -6 98 -141 138 -192 47 -57 140 -126 237 -174 79 -39 257 -88 322
-88 51 0 46 -14 -20 -52 -104 -61 -343 -158 -388 -158 -46 0 -352 172 -592
332 -402 269 -681 758 -753 1320 -20 162 -15 525 11 683 71 440 230 848 472
1213 72 108 79 115 154 158 43 25 81 49 83 53 5 8 -190 85 -271 106 -173 46
-377 42 -558 -10 -127 -36 -311 -131 -440 -226 -260 -193 -422 -226 -1035
-214 -517 10 -798 -14 -1115 -95 -460 -117 -723 -278 -1145 -700 -113 -113
-250 -257 -304 -320 -808 -944 -1328 -2274 -1600 -4090 -90 -599 -138 -1081
-178 -1785 -17 -297 -17 -1765 0 -2130 42 -901 98 -1726 197 -2930 146 -1754
312 -3216 521 -4575 141 -921 259 -1622 590 -3520 112 -646 218 -1251 234
-1345 74 -424 199 -1179 197 -1182 -2 -1 -127 60 -278 136 -684 348 -1182 537
-1624 617 -71 13 -149 18 -270 18 -156 -1 -177 -3 -260 -28 -208 -63 -329
-185 -387 -393 -22 -78 -22 -82 -26 -1155 -2 -617 1 -1078 6 -1078 5 0 15 11
22 25 7 14 16 25 19 25 3 0 18 -24 34 -53 154 -292 701 -606 1226 -703 137
-25 394 -30 530 -10 257 38 397 118 478 273 16 29 33 53 39 53 25 0 32 -25 23
-80 -17 -99 11 -266 57 -337 8 -12 14 -27 14 -33 0 -16 108 -146 166 -200 67
-62 144 -118 239 -173 71 -41 91 -48 175 -58 112 -13 229 -6 321 19 l67 19 76
-86 c133 -149 228 -208 378 -233 129 -22 283 17 402 103 l44 31 279 -110 c778
-307 1706 -610 2493 -812 l166 -42 44 -72 c56 -91 196 -229 286 -282 83 -49
179 -88 265 -109 75 -17 240 -18 319 -1 l55 11 115 -115 c327 -328 621 -401
1029 -256 24 9 49 16 55 16 6 0 24 -24 40 -53 72 -131 246 -318 378 -408 224
-153 522 -183 771 -79 68 28 187 101 268 163 l36 27 37 -56 c50 -75 174 -203
255 -263 137 -102 301 -173 473 -206 95 -18 292 -21 388 -6 161 26 331 94 472
188 86 57 217 185 272 266 22 31 43 57 48 57 5 0 32 -17 61 -38 190 -139 338
-192 540 -192 169 0 319 46 458 141 131 89 313 287 379 412 14 26 30 47 36 47
6 0 37 -9 70 -20 146 -51 216 -64 344 -64 142 -1 211 14 328 69 117 55 219
131 342 255 l115 116 60 -13 c95 -20 257 -17 350 7 208 53 401 193 510 369 31
50 45 63 74 70 970 251 1874 540 2776 890 l209 82 26 -20 c174 -128 434 -131
615 -6 29 20 90 78 136 130 71 79 88 94 109 91 14 -3 61 -11 105 -20 137 -26
319 -15 399 26 81 41 203 126 270 189 65 61 194 209 181 209 -3 0 3 17 14 37
10 21 24 57 31 80 12 40 19 46 107 93 52 28 159 91 239 140 80 50 149 88 154
85 4 -3 22 -29 38 -58 37 -64 99 -129 161 -169 117 -73 340 -113 591 -105 179
6 268 19 448 67 447 120 899 409 1030 658 l27 52 27 -32 28 -33 -3 1045 -2
1045 -23 75 c-13 41 -41 113 -64 160 -56 116 -177 239 -290 293 -131 63 -226
81 -418 81 -228 -1 -417 -37 -711 -135 -408 -136 -813 -336 -1479 -730 -107
-64 -244 -142 -304 -174 -102 -54 -109 -57 -104 -34 3 13 40 181 82 373 253
1148 526 2594 810 4301 82 492 298 2019 395 2800 108 858 176 1551 226 2272 8
122 19 252 24 290 21 147 61 530 80 763 32 386 42 576 51 1015 5 234 26 712
49 1115 74 1292 89 1659 97 2350 28 2162 -254 3740 -922 5173 -218 467 -489
888 -824 1278 -137 160 -399 414 -555 538 -237 189 -542 378 -710 439 -44 17
-139 57 -211 91 -366 169 -773 213 -1451 155 l-212 -18 -78 22 c-44 13 -138
56 -213 96 -386 210 -635 301 -960 351 -103 15 -470 33 -470 23 0 -3 48 -72
106 -154 377 -527 565 -1053 581 -1630 9 -302 -23 -541 -107 -794 -110 -336
-262 -583 -515 -835 -251 -251 -505 -407 -854 -524 -329 -110 -820 -185 -1301
-198 -341 -9 -557 21 -769 106 -158 63 -176 78 -227 185 -60 126 -120 312
-139 426 -19 120 -19 303 0 412 57 331 289 671 593 871 295 195 1024 609 1518
864 l212 108 -177 38 c-296 62 -298 62 -576 61 -216 -1 -277 -4 -362 -21 -57
-10 -103 -18 -103 -17 0 12 356 195 502 257 232 100 271 110 403 111 136 1
169 -10 237 -81 77 -80 101 -168 116 -423 l7 -135 99 160 c243 390 326 627
296 843 -35 258 -262 440 -570 459 -198 12 -371 -48 -1078 -369 -134 -61 -244
-109 -246 -107 -1 2 -12 42 -24 89 -12 47 -43 128 -69 180 -38 78 -60 109
-127 175 -87 87 -162 131 -271 160 -61 16 -235 27 -290 19z m310 -233 c132
-61 231 -204 269 -387 l7 -31 -133 -6 c-370 -17 -772 -133 -1193 -344 -183
-92 -307 -164 -445 -259 -257 -176 -514 -276 -827 -320 -91 -12 -161 -15 -308
-11 -217 7 -337 27 -455 77 -61 26 -190 96 -190 103 0 1 55 0 122 -1 67 -2
142 -1 166 3 l45 7 -6 65 c-4 36 -9 68 -12 71 -2 3 -50 9 -106 13 -164 14
-326 64 -405 124 -37 28 -54 87 -54 182 l0 55 43 -41 c48 -48 147 -116 223
-154 59 -30 248 -97 273 -97 12 0 22 16 34 53 9 30 17 60 17 68 0 8 -42 33
-97 59 -185 86 -356 218 -418 324 l-27 47 27 74 c15 42 31 77 35 80 4 3 16 -8
25 -23 114 -179 289 -301 511 -358 272 -69 611 -50 919 51 55 18 224 88 375
155 477 211 905 374 1131 429 185 46 346 43 454 -8z m1916 -131 c122 -38 213
-116 244 -210 32 -98 10 -267 -56 -416 l-22 -48 -16 23 c-112 159 -221 227
-391 247 -193 21 -556 -110 -1000 -362 -150 -84 -456 -285 -595 -389 -49 -37
-104 -74 -122 -83 -18 -9 -33 -20 -33 -26 0 -6 -35 -39 -79 -73 -43 -34 -119
-99 -169 -143 -50 -44 -98 -80 -107 -80 -9 0 -19 -10 -24 -22 -5 -13 -21 -34
-35 -47 -34 -32 -34 -20 0 95 116 403 386 747 745 950 113 64 192 96 214 88 9
-4 15 -1 15 9 0 27 855 410 1079 482 117 38 241 40 352 5z m-7841 -70 c67 -1
66 -8 -10 -131 -451 -726 -594 -1612 -375 -2332 135 -448 409 -836 751 -1064
385 -257 664 -397 929 -463 165 -42 295 -53 576 -48 272 5 374 20 569 84 129
42 337 142 448 216 90 61 91 61 67 -32 -39 -151 -120 -277 -269 -422 -61 -59
-108 -109 -105 -112 12 -13 502 -18 639 -7 633 53 1153 270 1566 654 l70 65
27 -43 c44 -69 145 -157 228 -197 105 -52 219 -78 379 -85 l135 -6 100 -47
c383 -183 864 -210 1675 -94 574 82 1012 255 1373 543 386 307 669 757 791
1252 123 502 85 1066 -109 1604 -54 151 -187 429 -268 563 -66 108 -74 104
111 67 236 -48 475 -140 745 -287 164 -89 233 -120 328 -144 83 -21 144 -21
379 1 232 21 609 25 755 6 229 -29 402 -78 586 -165 63 -30 146 -65 185 -79
141 -51 439 -234 642 -397 496 -396 946 -967 1266 -1608 533 -1067 840 -2283
941 -3732 29 -421 38 -712 38 -1260 0 -713 -16 -1164 -83 -2350 -17 -289 -35
-632 -42 -764 -7 -131 -15 -230 -19 -220 -4 11 -8 111 -8 224 -2 347 -26 1003
-57 1490 -53 866 -145 1715 -255 2375 -17 99 -34 207 -39 240 -25 174 -141
719 -225 1055 -273 1091 -652 1997 -1112 2658 -200 287 -501 617 -729 799
-401 319 -844 512 -1298 564 -137 16 -428 6 -525 -18 l-74 -18 -2 -325 c-1
-344 -9 -433 -60 -685 -200 -995 -879 -1775 -1926 -2216 -156 -65 -453 -164
-539 -179 -47 -8 -1065 -10 -3630 -8 l-3565 3 -134 43 c-608 195 -1095 474
-1485 852 -504 489 -782 1058 -872 1785 -13 103 -18 219 -18 435 l-1 294 -70
18 c-38 10 -132 23 -208 30 -168 14 -367 1 -556 -38 -362 -73 -767 -271 -1091
-532 -116 -94 -360 -335 -462 -457 -701 -840 -1204 -2087 -1528 -3788 -23
-116 -47 -252 -55 -302 -8 -49 -28 -175 -44 -280 -112 -702 -200 -1585 -246
-2460 -31 -594 -37 -809 -43 -1610 -3 -451 -7 -811 -9 -800 -10 68 -93 1234
-118 1645 -124 2077 -73 3516 176 4995 251 1490 681 2626 1313 3470 213 285
556 645 798 839 280 224 567 347 968 415 201 34 353 42 880 45 441 2 528 5
604 20 207 40 340 99 511 225 183 135 362 211 540 231 38 5 86 6 105 4 19 -2
51 -4 70 -4z m5221 -792 c51 -47 119 -68 216 -68 l73 0 -57 -92 c-31 -51 -62
-99 -68 -106 -19 -21 -217 -51 -330 -52 -119 0 -216 19 -299 59 -57 27 -146
94 -146 110 0 12 238 147 390 220 l145 70 17 -52 c11 -36 29 -63 59 -89z
m-602 -222 c50 -51 137 -96 231 -122 108 -29 337 -23 488 13 22 5 21 3 -14
-78 -68 -160 -122 -366 -143 -550 -8 -63 -17 -87 -61 -164 -67 -115 -142 -281
-186 -409 -38 -115 -45 -96 -19 59 24 148 70 279 127 364 34 51 31 65 -29 123
l-35 33 -63 -66 c-114 -121 -182 -265 -205 -439 -20 -147 3 -287 76 -468 25
-62 44 -115 42 -118 -9 -9 -154 95 -200 142 -126 132 -177 305 -148 499 9 62
97 394 126 475 7 20 4 17 -126 -135 -129 -151 -174 -233 -191 -345 -40 -260
68 -535 274 -699 74 -58 206 -131 293 -162 50 -17 284 -70 284 -64 0 1 -19 53
-41 116 -35 97 -42 129 -46 214 -9 175 46 396 155 627 86 184 128 247 220 335
l85 82 28 -44 c42 -66 118 -116 228 -151 9 -3 -2 -21 -36 -57 -429 -456 -532
-1012 -296 -1605 25 -62 43 -115 41 -117 -2 -2 -37 1 -78 6 -192 27 -318 106
-381 238 -12 25 -34 108 -49 184 -15 76 -30 140 -32 142 -3 3 -40 -47 -82
-111 -286 -429 -819 -735 -1447 -829 -101 -15 -389 -38 -396 -31 -2 1 17 41
42 88 111 209 138 386 95 629 -11 63 -23 120 -25 127 -3 7 -53 -37 -122 -106
-333 -335 -774 -493 -1260 -453 -111 9 -309 43 -321 56 -2 2 29 20 69 41 106
53 212 127 280 195 l59 59 112 10 c373 34 676 135 943 315 88 59 278 222 273
235 -2 4 -23 30 -48 57 l-46 50 -74 -54 c-287 -210 -592 -339 -945 -399 -74
-13 -162 -17 -335 -18 -207 0 -246 2 -327 21 -50 12 -112 32 -138 46 l-47 23
103 23 c404 90 771 314 995 606 l56 74 66 6 c192 18 449 76 581 131 l36 15
-25 -25 c-72 -70 -277 -236 -365 -295 -212 -142 -454 -245 -654 -278 l-101
-16 0 -69 0 -68 74 0 c161 0 427 65 578 141 99 49 202 125 270 198 35 37 123
155 196 262 l133 195 67 33 c103 51 224 126 336 209 101 76 293 255 369 346
l41 49 -53 49 -53 49 -97 -93 c-325 -312 -700 -521 -1093 -609 -135 -31 -453
-38 -603 -14 -112 17 -258 55 -302 78 -23 13 -20 15 79 51 233 85 497 234 685
387 136 111 289 274 398 424 l20 27 125 -17 c164 -23 425 -23 583 -1 302 43
597 152 837 310 47 31 87 56 90 56 3 0 25 -20 49 -44z m2617 -45 c-3 -4 -72
-45 -154 -89 -211 -115 -517 -290 -801 -460 -264 -157 -291 -168 -400 -157
-110 10 -182 54 -201 123 -11 40 -13 38 201 213 l117 96 198 79 c311 122 478
169 684 193 100 11 363 13 356 2z m-9010 -757 l41 -5 6 -252 c5 -263 20 -411
63 -627 110 -555 360 -1053 741 -1475 312 -345 746 -649 1253 -875 l55 -25
-1432 -3 c-788 -1 -1433 -5 -1433 -9 0 -4 140 -369 311 -811 l312 -804 -49
-49 c-65 -66 -170 -118 -266 -132 -219 -31 -465 111 -573 330 -56 116 -60 140
-58 377 1 120 -2 215 -6 210 -5 -5 -55 -81 -113 -170 -119 -182 -208 -283
-314 -353 -105 -70 -184 -94 -293 -89 -67 3 -99 10 -143 32 -61 29 -126 94
-160 159 -53 105 -78 307 -60 487 6 58 40 276 76 484 36 209 64 381 63 382 -1
2 -70 -153 -152 -344 -83 -190 -166 -371 -186 -401 -61 -95 -165 -184 -281
-241 -143 -69 -238 -90 -429 -97 -152 -5 -339 8 -369 27 -16 10 -15 16 75 385
315 1290 765 2286 1336 2951 435 507 939 819 1484 920 142 26 372 34 501 18z
m13042 -5 c561 -61 1119 -371 1568 -870 574 -638 1015 -1541 1348 -2757 68
-250 158 -630 151 -641 -11 -18 -210 -33 -369 -28 -170 5 -253 21 -376 71
-133 53 -258 150 -327 254 -21 31 -105 211 -187 400 -82 188 -151 341 -153
338 -2 -2 26 -178 63 -392 54 -314 68 -417 72 -532 8 -243 -29 -389 -124 -492
-78 -84 -131 -105 -265 -105 -104 0 -107 1 -190 42 -147 73 -251 176 -374 368
-32 50 -74 114 -94 144 l-36 54 -6 -229 c-5 -214 -7 -233 -31 -296 -35 -92
-79 -157 -153 -226 -220 -206 -517 -218 -720 -29 l-57 52 311 803 c171 442
311 805 311 808 0 2 -642 4 -1427 4 l-1428 0 230 114 c424 210 722 422 1011
717 502 516 790 1151 864 1904 7 66 12 211 13 322 l1 202 35 4 c78 8 247 6
339 -4z m79 -3462 c-2 -6 -119 -306 -258 -666 -246 -634 -254 -654 -286 -669
-36 -17 -39 -25 -19 -61 10 -18 11 -31 2 -52 l-10 -29 -6202 0 -6201 0 -281
728 c-155 400 -284 735 -288 744 -6 17 326 18 6771 18 5407 0 6776 -3 6772
-13z m-15386 -1062 c11 -38 38 -102 58 -140 37 -69 37 -72 24 -110 -37 -101
-54 -222 -60 -413 -3 -106 -10 -195 -15 -198 -17 -10 -120 69 -165 126 -94
118 -140 263 -150 470 -5 110 9 343 23 392 3 10 35 33 72 53 37 19 90 52 117
73 l50 38 12 -111 c7 -60 22 -141 34 -180z m17350 244 c30 -22 82 -54 115 -70
l61 -30 12 -100 c18 -159 14 -378 -9 -488 -27 -134 -84 -246 -163 -325 -62
-63 -123 -103 -135 -91 -4 4 -10 97 -13 208 -6 199 -17 272 -55 390 l-16 48
41 82 c52 101 79 204 88 325 3 50 9 92 13 92 3 0 31 -18 61 -41z m617 -195
l114 -7 -7 -46 c-11 -71 -45 -153 -66 -158 -11 -3 -19 -14 -19 -24 0 -39 -94
-99 -155 -99 -20 0 -51 6 -69 14 l-33 14 -1 98 c-1 55 -4 131 -8 170 l-6 71
68 -13 c38 -7 120 -16 182 -20z m-19036 10 l47 -6 6 -47 c11 -80 27 -144 53
-205 l26 -59 -17 -99 c-27 -159 -107 -374 -144 -385 -19 -6 -90 74 -116 130
-32 68 -50 149 -50 217 0 46 64 416 78 459 4 9 15 11 38 8 17 -3 53 -9 79 -13z
m587 -56 c-4 -40 -8 -115 -8 -165 -1 -92 -1 -93 -31 -108 -37 -19 -91 -19
-138 1 -42 17 -92 61 -92 80 0 7 -11 24 -24 37 -27 27 -56 112 -56 162 l0 32
113 7 c61 4 130 11 152 16 22 4 51 8 65 9 l26 1 -7 -72z m18914 5 c9 -38 30
-147 48 -243 32 -173 32 -176 17 -250 -9 -41 -26 -97 -39 -124 -24 -53 -97
-136 -118 -136 -32 0 -121 246 -151 418 -11 61 -10 67 20 139 18 43 36 111 43
159 l11 83 61 9 c99 15 92 19 108 -55z m-17205 -446 c59 -74 149 -148 239
-195 82 -42 78 -32 88 -207 3 -55 8 -126 11 -157 l6 -58 69 0 c81 0 73 -15 89
170 16 171 10 160 83 160 130 1 283 53 390 135 l47 36 0 -114 c0 -93 -5 -131
-25 -202 -117 -401 -354 -611 -643 -567 -379 58 -581 490 -486 1040 23 133 22
132 57 71 16 -30 50 -80 75 -112z m14928 -8 c22 -156 15 -378 -14 -491 -48
-181 -131 -318 -242 -402 -110 -82 -261 -120 -390 -97 -215 39 -375 213 -477
520 -31 93 -36 122 -41 235 -4 108 -3 128 9 120 8 -4 34 -22 59 -40 104 -73
229 -114 351 -114 l76 0 6 -47 c4 -27 12 -105 18 -175 l12 -128 72 0 72 0 7
73 c3 39 9 127 12 195 l7 123 61 31 c141 71 257 177 331 304 46 79 44 83 71
-107z m-15305 43 c-143 -286 -312 -450 -512 -497 -67 -15 -186 -20 -206 -7
-14 9 32 249 68 352 17 51 72 174 83 187 1 2 25 -6 52 -16 151 -58 340 -41
489 43 33 18 63 34 68 35 4 0 -15 -43 -42 -97z m15663 18 c124 -42 272 -43
390 -1 l56 20 20 -39 c46 -91 81 -199 111 -341 26 -125 29 -153 18 -161 -24
-16 -189 -2 -257 22 -83 29 -196 104 -255 170 -75 83 -220 317 -242 388 -7 23
-6 23 47 -7 30 -17 80 -40 112 -51z m-17184 -200 c0 -173 24 -359 66 -507 l15
-51 65 18 c36 9 66 19 67 21 2 2 0 64 -3 137 -3 73 -3 199 0 280 l5 147 19
-55 c56 -165 171 -317 302 -400 l63 -40 -5 -52 c-18 -179 -55 -293 -116 -362
-53 -61 -107 -88 -188 -94 -193 -14 -380 110 -483 318 -47 97 -97 259 -97 318
0 20 13 52 35 85 44 66 96 196 126 313 l23 91 53 -21 53 -21 0 -125z m18715
72 c35 -129 79 -240 126 -312 l40 -63 -16 -80 c-56 -278 -200 -479 -393 -550
-42 -15 -82 -21 -152 -21 -86 -1 -99 2 -141 26 -82 48 -127 117 -160 246 -10
42 -22 112 -25 156 l-5 81 53 32 c140 83 251 229 304 398 l19 60 7 -55 c8 -74
8 -381 -1 -453 l-7 -57 40 -11 c23 -5 54 -14 69 -19 25 -8 29 -6 38 16 39 105
87 490 74 604 l-6 55 53 21 c29 11 54 19 56 18 1 -1 14 -42 27 -92z m-3259
-119 c5 -10 10 -922 12 -2028 2 -1790 1 -2011 -13 -2021 -13 -10 -13 -16 0
-54 22 -62 23 -2845 1 -2853 -12 -5 -12 -12 0 -53 12 -39 14 -204 14 -991 0
-518 -2 -943 -5 -943 -9 0 -3786 3322 -3791 3334 -3 7 -3 59 -2 115 l3 103
619 -457 c340 -251 620 -454 622 -452 23 23 172 231 169 236 -2 4 -321 241
-709 526 l-705 520 0 258 -1 257 -316 0 c-297 0 -316 1 -309 18 95 243 110
511 45 790 -16 68 -164 476 -189 520 -4 8 -13 -73 -20 -180 -25 -414 -54 -528
-160 -641 -66 -71 -152 -97 -206 -61 -56 36 -71 161 -34 280 27 87 51 135 151
298 45 72 98 167 118 211 132 285 154 547 65 767 -93 230 -346 440 -540 450
l-70 3 -3 -68 c-2 -58 1 -72 22 -100 37 -50 49 -101 44 -191 -4 -66 -11 -93
-37 -145 -42 -82 -124 -164 -198 -198 -67 -31 -183 -42 -249 -24 -132 36 -196
167 -165 343 23 132 73 255 192 470 134 243 187 399 196 588 10 217 -47 371
-191 515 -100 101 -187 153 -331 200 -60 19 -115 37 -122 40 -14 5 4 75 88
329 32 99 57 182 55 183 -7 7 -263 -95 -357 -142 -449 -224 -656 -565 -635
-1045 7 -166 22 -263 88 -545 34 -148 52 -251 55 -316 5 -92 5 -97 -18 -113
-33 -23 -116 -21 -156 4 -84 51 -105 209 -58 433 14 71 25 133 23 138 -2 5
-62 -27 -133 -72 -231 -147 -351 -292 -406 -495 -11 -43 -82 -212 -156 -374
-188 -410 -240 -555 -277 -770 -67 -395 21 -765 251 -1047 l43 -53 -497 0
-498 0 156 76 157 76 -60 127 c-33 69 -63 129 -67 134 -6 6 -1175 -553 -1193
-571 -3 -4 24 -66 60 -138 l67 -131 405 198 c223 109 408 198 413 198 4 1 7
-140 7 -312 l0 -313 -614 -453 -614 -453 87 -119 c47 -65 88 -118 91 -118 3
-1 239 172 525 384 l520 384 3 -122 3 -122 -77 -70 c-42 -38 -851 -750 -1798
-1582 l-1721 -1512 -3 952 c-2 694 0 963 9 992 8 28 8 40 0 43 -16 5 -16 2816
1 2862 9 26 9 35 0 38 -10 3 -12 474 -12 2000 1 1099 4 2014 7 2035 l6 37
6157 0 c5855 0 6158 -1 6166 -17z m-13875 -263 c21 -144 87 -313 165 -422 l34
-47 -10 -104 c-24 -247 -101 -411 -222 -471 -41 -21 -67 -26 -123 -26 l-72 0
40 163 41 162 0 270 c0 201 -4 297 -16 374 l-17 105 51 55 c28 31 63 73 77 95
l26 40 7 -60 c5 -32 13 -93 19 -134z m15547 62 l53 -63 -16 -122 c-22 -170
-30 -440 -16 -557 7 -52 27 -160 46 -239 19 -79 35 -145 35 -147 0 -9 -126 -3
-162 8 -134 40 -236 240 -254 495 l-7 93 35 53 c100 150 161 332 175 521 l6
90 26 -34 c14 -19 50 -63 79 -98z m-17631 -81 c26 -11 32 -20 38 -59 11 -72
53 -210 86 -283 l30 -65 -60 -115 c-136 -261 -199 -534 -206 -891 -3 -159 -5
-182 -25 -223 -31 -64 -118 -155 -180 -189 l-52 -28 7 88 c37 502 82 977 125
1329 29 236 71 538 76 554 3 9 26 -7 67 -46 35 -33 77 -65 94 -72z m19787
-146 c43 -314 88 -694 116 -985 29 -310 60 -713 55 -718 -7 -7 -88 44 -135 86
-25 22 -61 66 -80 98 l-35 58 -6 206 c-13 381 -82 665 -224 914 l-44 78 23 47
c34 68 66 165 86 261 17 84 17 85 61 110 24 13 64 45 89 70 25 26 48 44 52 41
3 -3 22 -123 42 -266z m-18059 -127 c17 -120 40 -411 50 -620 5 -113 4 -138
-7 -138 -7 0 -45 15 -83 33 -162 78 -282 241 -351 477 -25 86 -54 249 -54 306
l0 31 123 5 c101 4 137 10 207 34 l85 30 7 -26 c4 -14 15 -73 23 -132z m16458
94 l117 -5 0 -46 c0 -135 -54 -342 -128 -486 -60 -118 -175 -237 -273 -283
-84 -40 -100 -41 -94 -4 2 15 7 99 10 187 3 88 10 216 16 285 10 123 46 397
54 410 2 4 44 -7 92 -23 71 -24 111 -31 206 -35z m-8493 0 c0 -5 -7 -31 -15
-58 -24 -77 -72 -319 -86 -427 -17 -140 -8 -316 21 -391 45 -117 125 -175 241
-176 159 0 285 83 335 222 17 47 23 191 9 248 l-7 35 21 -19 c38 -34 90 -155
101 -233 20 -144 -25 -331 -124 -518 -29 -55 -76 -143 -104 -195 -146 -273
-199 -535 -144 -708 18 -57 19 -63 4 -57 -34 13 -196 54 -200 51 -2 -2 17 -61
43 -131 80 -220 80 -273 3 -261 -57 9 -73 20 -94 63 -16 32 -19 60 -18 178 0
123 4 156 32 267 17 70 56 195 87 279 30 84 55 153 55 155 0 3 -206 -88 -270
-121 -198 -100 -336 -250 -386 -420 -25 -83 -23 -254 3 -352 11 -40 18 -73 17
-73 -2 0 -55 61 -118 136 -64 75 -116 131 -116 126 0 -6 43 -123 95 -261 52
-139 95 -267 95 -285 0 -57 -55 -146 -171 -276 -178 -201 -248 -313 -284 -450
-23 -89 -17 -242 13 -325 12 -32 22 -61 22 -62 0 -2 -47 -3 -104 -3 l-104 0
-84 89 c-144 151 -227 296 -275 480 -31 121 -41 334 -20 456 l13 80 28 -53
c78 -152 208 -220 382 -200 106 12 179 63 209 147 32 92 17 179 -85 477 -112
330 -124 383 -124 554 0 125 3 153 22 204 23 62 78 156 92 156 4 0 11 -25 15
-55 8 -70 65 -184 111 -224 134 -118 367 -117 470 2 86 102 85 207 -5 599 -66
284 -82 396 -83 553 0 200 29 320 113 462 47 79 179 211 273 272 78 51 96 59
96 43z m-6285 -687 c-75 -323 -264 -504 -526 -505 -142 0 -275 62 -389 180
-54 57 -140 188 -140 213 0 6 13 46 29 87 25 63 42 132 67 266 3 20 6 20 71
-13 82 -40 163 -61 262 -70 l74 -6 -6 -186 c-4 -102 -12 -239 -18 -303 -6 -64
-9 -124 -7 -132 4 -19 159 208 188 275 28 65 49 175 57 294 l6 103 36 17 c93
44 216 152 281 248 l25 36 3 -219 c2 -168 -1 -236 -13 -285z m12835 410 c52
-66 143 -141 218 -179 l52 -26 0 -79 c0 -92 22 -229 50 -309 18 -52 188 -318
197 -309 2 3 -3 89 -12 193 -8 104 -15 248 -15 320 l0 131 76 6 c98 9 183 31
255 68 32 16 62 29 67 29 5 0 12 -22 16 -49 10 -73 43 -194 71 -257 l25 -56
-25 -48 c-14 -27 -46 -75 -71 -107 -127 -160 -278 -243 -443 -243 -238 0 -409
152 -507 450 -27 82 -28 94 -31 325 -4 271 -13 255 77 140z m-6338 -67 c117
-235 140 -415 61 -478 -32 -25 -98 -43 -128 -36 -49 12 -73 140 -56 301 12
120 50 325 60 325 4 0 32 -51 63 -112z m-9474 -191 c56 -35 62 -43 58 -66 -24
-123 -96 -944 -96 -1103 l0 -48 69 0 69 0 7 63 c22 201 92 582 173 932 l28
120 74 7 c134 12 218 54 303 149 l55 62 17 -53 c17 -51 17 -53 -4 -79 -167
-205 -261 -407 -310 -663 -30 -159 -44 -338 -37 -478 3 -69 8 -134 11 -145 8
-27 -72 -147 -149 -225 -108 -109 -217 -144 -313 -101 -158 72 -292 400 -310
756 -19 385 29 672 157 941 l31 65 52 -47 c29 -26 80 -65 115 -87z m18927 62
c114 -226 173 -542 160 -854 -8 -197 -34 -355 -81 -494 -106 -317 -266 -430
-451 -319 -65 39 -151 129 -204 212 l-37 58 5 182 c14 462 -87 817 -313 1097
l-53 67 16 51 c9 28 20 51 23 51 4 0 21 -20 38 -44 67 -93 185 -154 313 -163
l76 -6 37 -159 c83 -359 166 -820 166 -920 l0 -38 75 0 75 0 -5 68 c-3 37 -12
168 -21 292 -16 248 -48 584 -68 728 l-12 92 52 30 c29 16 78 54 111 84 32 30
59 55 60 56 2 0 19 -32 38 -71z m-17994 -316 c45 -56 111 -115 177 -157 23
-14 42 -29 42 -32 0 -3 -21 -211 -46 -462 -35 -353 -43 -457 -33 -462 16 -10
119 -23 126 -16 5 4 183 839 183 857 0 4 44 7 98 7 95 0 203 24 240 54 7 6 15
8 19 5 10 -10 -26 -579 -42 -672 -56 -321 -206 -539 -418 -607 -95 -31 -238
-29 -340 6 -96 32 -139 59 -199 123 -85 92 -131 216 -150 404 -20 196 13 480
78 675 31 94 110 249 160 318 35 47 37 48 50 30 8 -10 32 -42 55 -71z m17053
-103 c111 -213 165 -488 153 -788 -8 -207 -43 -327 -128 -440 -47 -61 -139
-125 -213 -147 -356 -107 -629 72 -741 485 -22 80 -28 137 -41 355 -7 143 -18
298 -23 345 -4 47 -7 86 -6 88 1 1 26 -9 56 -23 65 -29 174 -47 245 -38 45 5
53 3 57 -13 8 -26 177 -836 177 -847 0 -9 93 -2 130 9 14 4 11 53 -26 427 -23
232 -44 441 -47 464 -4 41 -3 43 38 68 59 34 147 116 202 187 l45 59 39 -53
c21 -29 59 -91 83 -138z m-2076 -373 c37 -24 88 -53 114 -63 40 -16 49 -24 53
-49 2 -16 11 -174 20 -350 8 -176 18 -348 21 -382 l6 -63 69 0 c38 0 69 1 70
3 0 1 10 179 22 396 l22 395 70 11 c130 22 259 87 366 184 33 29 63 50 67 46
4 -3 7 -176 6 -383 -1 -373 -1 -378 -26 -472 -80 -294 -232 -450 -453 -467
-143 -11 -253 33 -366 146 -85 86 -140 181 -183 319 -49 156 -56 228 -56 576
l0 321 55 -62 c31 -34 86 -82 123 -106z m-12942 -622 c-77 -319 -221 -505
-433 -560 -120 -31 -264 -13 -349 45 -127 88 -210 280 -250 579 -18 137 -30
503 -20 614 l8 78 59 -55 c106 -99 254 -171 376 -183 50 -5 53 -8 57 -37 3
-17 13 -194 22 -393 l18 -363 73 0 c55 0 73 3 73 14 0 22 40 749 43 774 1 18
15 28 61 47 82 33 162 88 226 156 l55 58 3 -336 c2 -327 2 -339 -22 -438z
m-3403 -36 c29 -76 76 -170 109 -217 l23 -34 -22 -171 c-42 -328 -56 -561 -56
-917 1 -184 5 -384 11 -444 l9 -110 -68 -158 c-37 -87 -75 -165 -84 -174 -8
-8 -15 -26 -15 -39 0 -12 -33 -112 -74 -221 -66 -176 -161 -464 -228 -684
l-22 -75 -9 325 c-10 387 -2 1837 12 2170 23 549 34 766 41 785 4 11 25 26 46
34 55 19 161 83 214 129 l44 39 23 -87 c12 -48 33 -116 46 -151z m19865 98
c49 -24 94 -46 101 -48 13 -5 27 -216 52 -764 13 -304 25 -2188 14 -2342 l-7
-106 -83 249 c-72 217 -218 599 -275 719 -10 22 -46 98 -80 170 l-61 130 12
200 c22 370 2 858 -51 1281 l-21 162 31 46 c59 87 117 234 160 404 l11 43 55
-50 c30 -28 94 -70 142 -94z m-8778 -190 c158 -236 118 -536 -124 -917 -191
-301 -241 -534 -151 -710 77 -150 258 -208 415 -133 73 34 138 87 183 147 l30
41 -6 -90 c-8 -110 -27 -186 -74 -287 l-36 -78 -404 0 -403 0 0 33 c-1 46 -39
153 -80 222 -44 74 -141 175 -168 175 -11 0 -34 12 -51 26 l-31 26 0 -30 c0
-21 -8 -37 -25 -50 -22 -18 -24 -25 -19 -66 5 -32 2 -59 -10 -89 -32 -84 -98
-116 -104 -50 -5 49 22 137 133 433 135 361 145 397 152 548 6 140 -3 202 -47
299 l-28 62 31 -7 c67 -15 210 -7 282 16 222 68 402 294 422 529 l6 74 34 -33
c19 -18 52 -59 73 -91z m-1571 -132 c-40 -196 -35 -371 15 -480 34 -74 73
-114 141 -146 49 -24 73 -29 135 -29 137 0 216 66 227 188 6 60 6 61 23 39 57
-73 86 -184 76 -293 -9 -102 -33 -178 -155 -507 -60 -161 -117 -327 -126 -371
-27 -123 -10 -206 58 -268 l29 -28 -479 0 -479 0 -37 62 c-82 139 -71 285 33
447 21 33 88 115 148 183 59 68 122 142 139 166 l31 42 7 -27 c4 -16 9 -80 11
-144 3 -139 19 -184 81 -238 111 -98 282 -67 360 66 25 42 28 57 27 128 -1
100 -11 123 -144 330 -122 188 -200 336 -237 449 -22 67 -27 100 -27 191 -1
103 1 114 30 175 26 55 119 169 128 159 2 -2 -5 -44 -15 -94z m-1099 -95 c12
-58 59 -220 107 -360 70 -209 86 -267 87 -320 l1 -65 -36 -9 c-113 -28 -196
52 -229 221 -17 87 -8 328 20 507 13 82 25 145 27 140 1 -5 12 -56 23 -114z
m9161 -57 c30 -28 81 -68 114 -88 68 -40 199 -85 250 -85 19 0 36 -4 39 -9 3
-5 15 -78 25 -162 132 -1026 38 -2011 -266 -2788 l-48 -123 -6 49 c-19 146
-83 454 -126 603 -51 181 -150 423 -237 585 -169 314 -286 709 -346 1167 -20
158 -40 395 -40 484 l0 52 76 36 c56 26 95 55 154 113 88 87 90 86 90 -15 0
-83 28 -332 56 -502 14 -85 70 -373 125 -640 95 -458 102 -503 135 -820 19
-184 37 -336 39 -338 2 -2 36 -1 74 3 l71 7 0 32 c0 79 -21 431 -30 521 -20
185 -61 428 -135 805 -114 575 -140 760 -151 1103 l-7 182 45 -60 c25 -33 70
-83 99 -112z m-15424 -45 c-10 -324 -33 -487 -152 -1088 -112 -570 -142 -787
-152 -1132 l-6 -206 67 -7 c37 -4 70 -5 73 -1 4 3 22 151 40 329 31 303 39
351 132 807 135 655 167 853 187 1160 l7 104 25 -34 c53 -72 134 -140 210
-177 l75 -36 -6 -156 c-19 -443 -120 -942 -263 -1289 -19 -45 -67 -149 -108
-230 -191 -381 -279 -652 -346 -1062 -11 -69 -20 -141 -20 -160 0 -49 -12 -31
-58 85 -164 414 -273 924 -312 1455 -23 315 -12 827 26 1175 27 250 38 317 54
325 8 4 44 13 80 19 142 26 303 129 397 256 26 36 50 65 52 65 2 0 1 -91 -2
-202z m-1337 2 c-20 -163 -67 -390 -170 -810 -170 -697 -220 -989 -220 -1286
0 -116 -1 -114 86 -114 63 0 56 -17 79 190 29 258 54 387 165 845 124 511 160
671 195 870 21 117 55 366 55 398 0 5 28 -17 63 -49 75 -71 179 -128 279 -153
l73 -19 -1 -38 c0 -22 -10 -124 -22 -229 -12 -104 -27 -256 -32 -337 l-11
-147 -58 -115 c-210 -410 -394 -1138 -516 -2041 -14 -104 -29 -210 -34 -235
l-8 -45 -42 90 c-172 363 -314 845 -391 1325 -32 205 -50 379 -41 403 6 15 5
29 -4 40 -27 37 -37 691 -15 992 11 154 37 409 46 457 l5 26 54 -19 c71 -25
165 -24 246 1 65 20 169 82 204 121 l20 21 3 -23 c2 -13 -1 -66 -8 -119z
m18140 16 c89 -41 210 -48 289 -17 30 11 56 20 57 18 3 -4 34 -289 44 -417 29
-351 20 -1041 -14 -1064 -10 -7 -11 -16 -3 -35 7 -19 3 -76 -12 -201 -55 -435
-168 -897 -308 -1260 -61 -160 -146 -350 -155 -350 -5 0 -8 14 -8 30 0 48 -76
564 -115 784 -125 704 -286 1249 -457 1551 -33 58 -34 65 -46 236 -7 96 -21
252 -33 345 -31 262 -36 233 46 254 128 33 215 82 298 164 53 54 53 54 62 -54
20 -225 83 -537 245 -1200 56 -228 110 -467 120 -530 16 -96 60 -440 60 -471
0 -12 120 -12 139 0 12 8 12 38 2 198 -20 333 -52 511 -216 1188 -57 237 -115
489 -129 560 -23 119 -56 344 -56 381 0 9 22 -3 63 -33 34 -27 91 -61 127 -77z
m-15554 -1466 c-32 -119 -71 -313 -91 -449 -9 -58 -18 -107 -21 -110 -10 -11
17 451 42 699 8 85 25 223 37 305 16 116 21 199 22 370 0 236 -11 317 -59 450
l-23 63 44 52 c24 29 49 63 56 74 9 17 13 -126 15 -669 l2 -690 -24 -95z
m12871 1350 l62 -66 -15 -44 c-41 -118 -49 -190 -49 -425 1 -182 5 -260 23
-375 40 -270 88 -905 76 -1015 -2 -16 -8 -111 -15 -210 -12 -173 -26 -207 -28
-70 -3 178 -63 573 -126 831 l-35 140 0 680 1 679 21 -30 c12 -16 50 -59 85
-95z m-13086 -253 c21 -105 26 -393 9 -532 -47 -376 -80 -968 -63 -1135 10
-92 18 -124 73 -259 50 -123 61 -160 55 -187 -3 -19 -10 -34 -14 -34 -9 0
-104 105 -158 175 -246 319 -387 912 -314 1325 26 153 51 383 59 555 l7 140
76 7 c68 6 178 35 219 58 21 12 29 -5 51 -113z m13394 73 c43 -11 99 -20 124
-20 l47 0 12 -188 c12 -191 40 -428 67 -570 49 -252 -34 -723 -179 -1026 -55
-115 -146 -251 -220 -331 l-55 -60 70 175 c66 161 72 182 82 284 16 170 -12
679 -59 1086 -17 150 -20 445 -5 531 10 61 30 139 35 139 1 0 38 -9 81 -20z
m-7036 -609 c55 -90 66 -145 35 -175 -21 -21 -61 -20 -73 2 -7 13 -21 266 -14
259 0 -1 24 -40 52 -86z m-8164 -927 c49 -503 186 -1071 341 -1421 l23 -54
-49 -177 c-356 -1287 -671 -2706 -770 -3477 -11 -88 -24 -178 -28 -200 l-8
-40 -62 148 c-429 1006 -670 2064 -752 3302 -30 447 -30 1211 0 1665 9 136 24
229 36 218 2 -3 15 -69 28 -149 88 -508 229 -957 436 -1389 l88 -185 6 -365
c3 -201 13 -556 21 -790 26 -756 55 -1503 61 -1567 l6 -63 66 0 67 0 1 1383
c1 1356 2 1385 23 1567 94 788 223 1450 372 1908 28 86 54 162 58 167 3 6 9
-63 13 -151 3 -89 14 -237 23 -330z m16950 246 c117 -380 216 -862 299 -1450
77 -543 71 -381 71 -1937 l0 -1403 73 0 72 0 0 40 c0 23 11 323 25 668 30 765
41 1108 56 1666 l11 429 78 156 c200 402 358 904 440 1396 12 72 24 141 27
155 20 94 45 -210 63 -773 11 -351 1 -831 -25 -1184 -76 -1027 -291 -2019
-635 -2928 -74 -197 -168 -426 -179 -437 -3 -4 -17 75 -29 175 -93 739 -396
2128 -738 3377 l-86 315 20 55 c11 30 43 116 70 190 125 338 215 730 261 1148
18 155 40 457 41 554 1 32 2 31 21 -17 11 -27 39 -115 64 -195z m-8021 -42
c34 -95 38 -88 -58 -88 l-86 0 40 36 c22 20 48 50 57 65 10 16 20 29 24 29 4
0 14 -19 23 -42z m-7665 -171 c34 -128 88 -281 131 -367 47 -93 55 -218 55
-825 0 -512 -6 -670 -40 -1155 -19 -265 -61 -725 -86 -959 -11 -101 -18 -186
-15 -188 7 -7 130 -32 135 -28 8 9 63 248 86 377 90 508 145 1292 145 2072 l0
289 64 -61 c70 -68 98 -82 156 -82 53 0 87 15 121 51 l29 31 0 -819 0 -820
-64 -189 c-231 -682 -482 -1161 -709 -1353 l-52 -44 -12 139 c-35 403 -87 649
-238 1113 -224 692 -297 1194 -230 1587 61 360 130 573 305 934 65 135 133
284 152 332 18 47 34 85 35 84 1 -1 16 -55 32 -119z m14375 33 c16 -41 81
-185 146 -320 132 -274 194 -435 244 -638 74 -294 101 -492 91 -662 -21 -375
-101 -754 -265 -1255 -136 -416 -209 -765 -227 -1078 -9 -170 -5 -168 -110
-62 -228 231 -482 740 -692 1387 l-41 127 0 816 0 817 26 -32 c36 -42 74 -60
131 -60 58 0 84 15 177 101 39 35 67 58 63 52 -10 -15 9 -959 23 -1208 25
-445 68 -866 116 -1135 29 -164 82 -398 92 -404 4 -2 37 3 74 11 61 14 67 17
63 37 -7 31 -51 483 -75 756 -66 787 -93 1504 -71 1925 17 322 27 393 72 505
42 107 103 302 114 368 4 24 10 40 14 35 4 -4 20 -42 35 -83z m-5014 -459 c0
-216 4 -342 10 -346 6 -4 10 -78 10 -191 l0 -184 -149 0 c-101 0 -151 4 -153
11 -3 8 -585 12 -2143 13 -1701 1 -2139 4 -2143 14 -2 6 -11 12 -21 12 -15 0
-17 37 -18 505 l0 505 2303 0 2304 0 0 -339z m7764 -338 c98 -303 172 -586
216 -839 23 -130 23 -80 -6 -704 -13 -280 -23 -465 -60 -1091 -4 -64 -3 -108
3 -112 10 -6 7 -36 -53 -522 -109 -893 -339 -2505 -455 -3187 -307 -1817 -536
-3016 -810 -4241 -86 -386 -70 -344 -143 -378 l-63 -29 -134 34 c-187 48 -303
66 -456 73 l-133 6 0 77 c0 43 11 399 25 791 42 1234 46 1384 52 2219 7 986
-10 1677 -56 2370 -6 80 -16 222 -22 316 -9 130 -9 210 0 330 49 690 59 2247
21 3491 -9 319 -9 323 12 358 11 20 22 34 25 32 6 -7 125 -455 223 -842 327
-1295 522 -2294 580 -2975 29 -335 29 -1452 0 -2045 -53 -1087 -162 -2018
-331 -2810 -26 -120 -149 -641 -165 -700 -10 -34 228 317 253 373 38 86 100
302 143 500 196 886 341 2409 425 4449 l14 352 57 133 c549 1286 809 2707 792
4335 -2 205 -2 373 -1 373 1 0 22 -62 47 -137z m-19900 -195 c-6 -228 7 -739
26 -1028 83 -1230 330 -2314 753 -3312 l74 -173 7 -195 c45 -1286 141 -2614
252 -3510 95 -771 230 -1422 337 -1625 27 -50 229 -346 234 -341 2 1 -24 115
-58 252 -249 1021 -373 1962 -441 3359 -8 161 -13 543 -13 1005 1 634 3 774
18 940 58 631 206 1426 473 2535 124 517 324 1285 335 1285 3 0 14 -18 24 -39
16 -37 16 -65 6 -448 -19 -642 -25 -2107 -12 -2573 12 -425 25 -701 41 -885 7
-73 7 -151 0 -230 -15 -176 -60 -1146 -82 -1770 -17 -485 -17 -2218 0 -2610
23 -523 54 -1039 81 -1340 4 -49 6 -92 4 -94 -2 -3 -59 -8 -126 -12 -68 -4
-173 -15 -233 -24 l-109 -17 -185 109 c-102 61 -211 125 -244 144 l-58 34 -89
530 c-89 529 -179 1047 -454 2625 -390 2236 -569 3372 -709 4500 -25 201 -48
382 -51 403 -4 29 -2 37 10 37 13 0 15 10 10 58 -10 110 -51 829 -75 1335 -12
252 -8 293 61 612 48 216 182 695 196 695 2 0 1 -105 -3 -232z m14209 -1998
l1896 -1665 1 -352 c0 -339 -1 -353 -19 -363 -20 -10 -20 -11 -1 -53 19 -41
20 -88 20 -1927 0 -1111 -4 -1901 -10 -1925 -5 -23 -5 -44 0 -50 11 -13 -11
-194 -35 -284 -79 -307 -253 -553 -511 -724 -102 -68 -271 -153 -281 -143 -4
3 -13 0 -22 -8 -52 -45 -395 -127 -651 -156 -299 -32 -1223 -96 -1619 -110
-260 -10 -295 -9 -310 4 -15 14 -19 14 -33 0 -11 -11 -49 -18 -129 -25 -737
-57 -1408 -190 -1854 -365 -287 -114 -519 -245 -658 -374 l-67 -62 -69 65
c-114 107 -362 261 -541 334 -332 137 -911 277 -1440 347 -157 21 -512 56
-569 56 -26 0 -56 6 -67 14 -13 10 -23 11 -31 4 -13 -10 -491 3 -783 23 -563
36 -1128 83 -1285 105 -183 26 -444 91 -510 127 -11 6 -28 12 -38 14 -9 2 -63
26 -120 54 -326 164 -542 403 -647 717 -70 211 -64 17 -67 2250 -3 1848 -2
2015 13 2044 15 29 15 32 0 43 -14 11 -16 52 -16 368 l0 355 1891 1661 1890
1661 65 0 64 0 0 -2395 0 -2395 -147 -1 -148 0 -643 -735 c-524 -598 -648
-734 -667 -734 -21 0 -25 -5 -25 -28 0 -15 -5 -33 -11 -39 -8 -8 -8 -17 0 -30
5 -11 9 -29 8 -41 l-1 -20 -29 20 c-16 11 -46 38 -66 60 -36 37 -37 41 -33 92
10 126 -45 286 -132 383 l-45 50 24 69 c50 144 42 278 -26 413 -63 127 -193
234 -327 271 l-43 11 8 47 c4 26 7 85 6 131 -5 163 -51 278 -153 382 -273 278
-739 175 -867 -192 -41 -118 -40 -295 2 -400 5 -12 -7 -21 -52 -37 -226 -84
-368 -344 -319 -582 19 -91 71 -201 125 -261 l39 -45 -30 -49 c-119 -191 -99
-443 50 -621 l51 -62 -21 -63 c-28 -88 -28 -220 1 -310 43 -134 146 -253 271
-313 38 -18 77 -36 88 -38 14 -4 21 -22 30 -84 34 -221 206 -401 422 -443 83
-16 110 -27 110 -44 0 -8 17 -48 37 -88 92 -187 291 -300 500 -286 l82 6 31
-56 c63 -112 162 -194 286 -239 125 -46 248 -42 386 13 l68 26 58 -41 c148
-104 316 -125 501 -62 l56 19 65 -63 c137 -133 309 -177 506 -130 l75 17 42
-40 c123 -119 307 -173 486 -143 l72 12 48 -45 c57 -54 163 -109 252 -132 192
-51 478 4 763 147 54 27 100 47 103 44 11 -10 54 54 49 72 -4 12 3 23 22 34
20 13 22 18 10 18 -23 0 -23 0 8 95 67 208 91 457 60 605 -18 88 -79 216 -136
287 -43 54 -152 133 -212 154 -24 8 -43 24 -57 49 -33 59 -97 126 -162 169
l-61 41 873 -1 c680 0 870 -3 855 -12 -80 -50 -146 -110 -184 -166 -38 -57
-52 -69 -120 -102 -111 -54 -191 -138 -256 -267 -89 -176 -89 -444 -1 -737 25
-81 30 -112 22 -117 -8 -6 -5 -13 10 -26 16 -12 20 -21 13 -31 -6 -11 -1 -22
18 -40 15 -14 32 -26 37 -27 6 -1 62 -27 125 -58 223 -107 384 -149 575 -150
116 0 138 3 203 26 86 31 165 77 223 130 39 36 43 37 83 28 63 -14 205 -12
270 5 87 23 164 64 227 123 l57 52 88 -21 c109 -26 199 -22 302 14 80 28 185
98 225 150 l26 34 73 -25 c177 -59 349 -34 502 75 l49 35 46 -21 c149 -69 319
-67 469 5 72 35 169 127 214 204 l37 63 94 -2 c163 -4 278 41 389 150 62 61
122 159 141 229 3 11 13 20 23 20 39 0 153 34 221 66 147 70 260 227 284 396
l11 76 57 22 c79 30 139 71 203 138 61 64 97 128 123 216 22 74 17 237 -9 309
l-17 48 36 41 c20 22 50 60 65 85 102 160 101 396 0 557 l-29 46 29 34 c48 54
99 146 120 215 36 116 24 275 -30 387 -51 104 -167 213 -267 250 -27 9 -51 20
-55 23 -4 4 0 29 9 56 25 78 23 252 -5 340 -115 375 -587 496 -867 221 -69
-67 -123 -164 -145 -256 -12 -49 -17 -226 -8 -288 3 -20 -5 -25 -62 -45 -223
-75 -372 -294 -357 -524 l4 -73 -238 0 -239 0 -2 398 c-2 218 -5 404 -8 412
-3 8 -13 23 -22 34 -11 12 -18 36 -18 60 l0 41 -21 -33 -21 -32 -717 2 -716 3
-3 2392 -2 2392 117 3 c65 2 121 3 124 3 3 0 859 -749 1902 -1665z m-5999
1583 c3 -42 6 -1367 6 -2945 l0 -2868 -450 0 -450 0 0 235 0 235 40 0 40 0 0
-170 0 -170 235 0 235 0 0 2880 0 2880 169 0 168 0 7 -77z m1306 -915 c0 -553
-4 -988 -9 -982 -4 5 -252 417 -550 915 l-541 905 0 77 0 77 550 0 550 0 0
-992z m630 -1953 l0 -2945 -220 0 -220 0 1 2945 0 2945 219 0 220 0 0 -2945z
m1180 2766 l0 -179 -490 -833 -490 -833 0 1012 0 1012 490 0 490 0 0 -179z
m550 -2701 l0 -2880 230 0 230 0 0 170 0 170 45 0 45 0 0 -235 0 -235 -450 0
-450 0 0 2945 0 2945 175 0 175 0 0 -2880z m-2910 1426 l550 -919 0 -1208 0
-1209 -555 0 -555 0 0 2132 c0 1172 2 2129 5 2127 2 -3 252 -418 555 -923z
m2360 -1316 l0 -2020 -490 0 -490 0 0 1189 0 1190 488 830 c268 457 488 830
490 831 1 0 2 -909 2 -2020z m6339 265 c1 -1014 -12 -1543 -49 -1937 -12 -127
-255 -1353 -334 -1685 -60 -253 -163 -622 -224 -803 -56 -165 -134 -372 -138
-367 -2 1 -10 111 -19 243 -76 1192 -235 2023 -536 2796 l-69 177 0 398 c0
289 3 402 12 411 8 8 8 15 0 25 -9 11 -11 204 -10 758 l3 743 64 -154 c174
-423 352 -729 531 -911 l65 -67 -7 -463 c-15 -1021 -28 -2205 -28 -2570 l0
-386 66 -7 c37 -4 69 -4 72 -1 13 12 86 1205 124 2015 6 146 12 504 12 796 l1
530 30 20 c54 35 73 76 79 172 33 470 77 699 225 1158 44 137 88 276 98 309
l18 60 6 -190 c4 -104 7 -586 8 -1070z m-15364 955 c160 -492 221 -791 241
-1165 7 -148 20 -185 74 -224 l37 -26 -5 -275 c-6 -381 17 -1065 63 -1885 19
-325 63 -1011 72 -1113 l6 -74 71 7 c39 4 71 8 72 9 4 4 -17 2068 -26 2679
l-12 739 69 71 c190 197 355 483 539 932 l53 130 1 -747 c0 -489 -3 -749 -10
-753 -7 -4 -7 -12 0 -25 6 -12 10 -172 10 -422 l0 -404 -44 -109 c-267 -667
-429 -1396 -516 -2320 -24 -267 -50 -626 -50 -715 0 -76 -8 -72 -45 25 -142
374 -260 782 -369 1271 -96 431 -285 1418 -296 1544 -39 467 -54 1194 -46
2236 5 778 10 960 24 889 3 -11 42 -134 87 -275z m-1269 -2973 c-3 -33 -6 -96
-6 -140 0 -44 -2 -78 -4 -76 -2 2 -6 68 -10 146 -6 130 -5 142 10 136 14 -5
15 -16 10 -66z m17806 -152 c-9 -66 -10 -61 -11 71 0 77 2 144 7 148 11 12 14
-140 4 -219z m-13856 121 c67 -31 130 -94 161 -164 32 -68 42 -209 21 -286
-13 -47 -15 -49 -68 -65 -68 -21 -134 -59 -194 -112 l-46 -41 -32 27 c-52 44
-153 90 -239 109 -72 16 -97 262 -39 376 45 88 130 155 227 180 56 14 149 3
209 -24z m10166 -4 c62 -31 121 -89 155 -154 26 -49 28 -61 28 -168 0 -96 -4
-123 -22 -161 -19 -42 -24 -46 -74 -57 -70 -16 -142 -50 -200 -95 l-47 -35
-33 34 c-47 48 -119 93 -192 119 -58 21 -63 25 -75 66 -20 68 -11 222 17 284
30 67 93 131 166 167 54 26 68 29 145 26 64 -2 97 -9 132 -26z m-11668 -3494
c-175 -164 -292 -378 -341 -624 -24 -124 -24 -378 1 -542 44 -293 -8 -560
-143 -730 -23 -28 -89 -91 -146 -138 -58 -48 -105 -90 -105 -94 0 -4 37 -11
83 -15 45 -4 86 -10 90 -12 22 -13 -224 -149 -250 -139 -8 3 -22 -3 -31 -13
-25 -29 -186 -73 -343 -94 l-37 -5 -6 61 c-40 398 -80 1171 -97 1882 -19 805
2 2113 48 2945 6 116 7 122 17 82 6 -24 14 -41 18 -37 3 4 12 -20 18 -52 155
-772 314 -1342 507 -1813 58 -143 322 -690 333 -690 3 0 12 147 19 328 51
1346 156 2138 383 2917 l53 180 3 -1663 2 -1664 -76 -70z m12880 3212 c224
-767 323 -1515 381 -2889 8 -195 17 -356 18 -358 5 -5 262 522 308 632 199
477 355 1016 508 1758 23 108 45 205 51 215 5 9 14 33 18 52 8 29 10 18 16
-70 42 -647 44 -2009 5 -3255 -20 -639 -58 -1687 -61 -1690 -6 -7 -174 26
-263 51 -49 13 -96 32 -103 42 -7 9 -21 16 -32 14 -10 -2 -49 13 -87 32 -70
36 -182 105 -173 107 3 0 48 6 100 13 l95 11 -80 65 c-188 151 -266 261 -315
445 -31 114 -37 308 -15 445 9 58 19 170 22 250 6 177 -11 306 -62 458 -65
194 -155 333 -306 475 l-89 84 0 1649 c0 952 4 1643 9 1634 5 -8 30 -85 55
-170z m-8694 -435 l0 -295 -35 0 -35 0 0 175 0 175 -171 0 -170 0 106 120 106
120 100 0 99 0 0 -295z m1850 -255 l0 -550 415 0 415 0 0 550 0 550 490 0 490
0 0 -550 0 -550 631 -2 630 -3 -56 -87 -57 -88 -3066 0 -3066 0 26 28 c14 15
187 211 384 437 l359 410 3 -348 2 -347 645 0 645 0 0 550 0 550 555 0 555 0
0 -550z m3784 523 c-9 -16 -166 -253 -348 -528 l-331 -499 -3 407 -2 407 -235
0 -235 0 -2 -172 -3 -173 -35 0 -35 0 -3 280 c-1 154 0 285 3 292 3 10 134 13
626 13 l621 0 -18 -27z m106 -572 l0 -359 -387 -326 c-213 -179 -391 -326
-395 -326 -4 0 -8 44 -8 98 l0 97 388 587 c213 323 390 587 395 588 4 0 7
-161 7 -359z m-8014 314 c68 -30 124 -82 159 -147 37 -67 47 -199 21 -262 -14
-35 -19 -38 -43 -32 -61 15 -207 18 -262 6 -45 -10 -124 -41 -172 -67 -4 -2
-10 26 -14 63 -8 82 -38 190 -72 267 l-26 58 39 40 c96 100 245 130 370 74z
m9340 -8 c57 -29 110 -70 124 -97 7 -13 2 -35 -19 -82 -33 -74 -58 -168 -67
-256 -4 -34 -11 -62 -16 -62 -5 0 -19 7 -31 15 -81 53 -256 78 -365 52 l-64
-15 -16 37 c-9 22 -15 66 -15 111 -1 146 82 263 223 314 67 24 180 17 246 -17z
m-10174 -8 c76 -16 125 -44 183 -105 98 -102 142 -223 152 -418 l6 -118 -74
40 c-98 54 -166 72 -263 72 -86 0 -152 -14 -229 -48 l-47 -21 -41 54 c-55 72
-79 140 -79 220 0 153 99 281 249 321 59 16 78 16 143 3z m10943 -31 c67 -35
122 -91 154 -158 22 -46 26 -69 26 -140 0 -72 -4 -93 -27 -141 -15 -30 -42
-72 -60 -92 l-33 -37 -62 25 c-164 67 -339 55 -484 -35 -77 -47 -74 -53 -59
104 18 187 62 302 150 394 81 85 150 113 265 108 62 -2 91 -8 130 -28z m-1655
-558 c0 -10 -911 -1017 -934 -1032 -6 -4 -90 -8 -186 -8 l-175 1 25 20 c14 11
249 208 522 437 l497 417 1 81 c0 44 3 84 7 87 11 11 243 8 243 -3z m-8324
-45 c113 -55 176 -149 182 -272 l4 -73 -68 0 c-132 0 -249 -48 -348 -141 l-63
-58 -39 106 c-21 59 -58 141 -81 182 -24 41 -43 79 -43 84 0 20 85 120 123
145 104 69 227 79 333 27z m9087 -2 c39 -18 75 -44 109 -82 73 -79 76 -89 42
-142 -36 -57 -85 -167 -113 -252 l-23 -68 -48 45 c-103 96 -208 142 -352 154
l-83 7 1 51 c2 75 29 146 76 199 106 120 247 152 391 88z m-9895 -124 c94 -47
175 -132 233 -244 38 -73 99 -221 99 -241 0 -2 -27 9 -60 26 -203 103 -443 89
-605 -35 l-49 -38 -33 39 c-45 52 -77 158 -70 230 19 181 169 310 350 300 52
-3 83 -11 135 -37z m10712 5 c116 -52 193 -170 194 -294 1 -80 -24 -155 -67
-205 l-33 -38 -67 46 c-163 112 -385 122 -582 27 -33 -16 -61 -27 -63 -26 -5
6 50 151 83 216 46 92 116 183 167 218 139 95 244 111 368 56z m-1469 -74 c-6
-28 -11 -68 -11 -89 0 -37 -14 -54 -281 -342 -155 -167 -310 -334 -345 -370
l-63 -66 -56 15 c-31 8 -54 19 -53 23 8 19 813 896 816 888 2 -5 -1 -32 -7
-59z m-8205 -361 c89 -27 170 -104 203 -193 12 -32 20 -59 19 -60 -2 -1 -39
-19 -83 -41 -135 -65 -239 -189 -277 -329 -7 -25 -16 -46 -21 -46 -24 0 -93
73 -133 140 -25 41 -71 111 -103 156 l-58 81 14 45 c20 69 90 168 147 206 95
63 181 75 292 41z m6674 -109 l0 -130 -3100 0 -3100 0 0 123 c0 68 3 127 7
130 3 4 1398 7 3100 7 l3093 0 0 -130z m1895 103 c90 -29 206 -167 221 -265 5
-28 -1 -42 -36 -88 -23 -30 -68 -99 -101 -152 -35 -56 -78 -111 -104 -132 -49
-40 -55 -43 -55 -21 0 31 -41 131 -74 180 -55 83 -124 143 -214 187 -91 44
-89 39 -52 124 38 88 128 159 230 180 62 13 111 10 185 -13z m-9522 -163 c119
-30 213 -95 325 -224 82 -94 82 -92 -4 -88 -95 5 -167 -11 -256 -55 -86 -44
-181 -134 -222 -214 l-30 -56 -49 20 c-62 26 -136 97 -167 162 -35 71 -39 180
-11 256 38 100 124 177 230 205 65 18 97 17 184 -6z m10492 -19 c72 -34 136
-98 167 -166 33 -73 33 -200 -1 -269 -42 -84 -105 -142 -193 -175 -27 -10 -29
-8 -53 39 -14 27 -52 79 -86 115 -105 111 -275 178 -416 161 -54 -6 -54 -6
-42 16 7 13 58 68 113 123 142 141 226 182 376 184 63 1 84 -4 135 -28z
m-1559 -64 c-5 -24 -13 -37 -29 -41 -45 -12 -47 -5 -11 39 20 25 39 43 42 41
2 -3 1 -21 -2 -39z m-7508 -201 c61 -22 122 -66 158 -115 l32 -45 -40 -50
c-80 -101 -118 -208 -118 -334 0 -40 -3 -72 -7 -70 -174 87 -276 132 -348 153
-49 14 -94 30 -100 36 -5 5 -10 51 -10 102 0 79 4 100 26 147 39 81 108 146
185 174 51 19 171 20 222 2z m7655 -20 c111 -54 181 -168 181 -296 1 -96 -8
-130 -34 -130 -41 0 -212 -62 -316 -115 -59 -30 -109 -55 -111 -55 -2 0 -3 28
-3 63 0 123 -52 265 -126 347 l-35 39 27 40 c28 43 68 77 124 106 58 30 82 35
161 31 59 -2 90 -9 132 -30z m-6633 -161 c0 -2 -13 -11 -29 -19 -21 -11 -31
-12 -40 -3 -20 20 -12 27 29 27 22 0 40 -2 40 -5z m4884 -31 c-65 -39 -144
-112 -174 -160 l-20 -31 -47 23 c-158 77 -328 71 -491 -17 l-74 -39 -1398 0
-1398 0 -58 35 c-152 92 -352 101 -510 24 -39 -18 -48 -20 -54 -8 -35 63 -123
144 -192 180 -21 11 -38 22 -38 24 0 3 1016 5 2257 5 l2257 0 -60 -36z m550
16 c-19 -19 -22 -20 -52 -4 -18 8 -32 17 -32 20 0 2 24 4 52 4 l52 0 -20 -20z
m-5849 -21 c72 -13 123 -38 175 -85 l39 -35 -30 -49 c-51 -83 -71 -155 -73
-260 0 -52 1 -108 4 -125 5 -28 3 -30 -27 -33 -17 -2 -94 12 -170 31 -76 19
-166 38 -200 42 l-62 7 -18 51 c-25 75 -23 198 5 259 28 63 95 134 155 165 41
20 66 28 138 42 3 1 32 -4 64 -10z m-1645 -10 c36 -5 93 -24 126 -40 62 -31
224 -153 224 -169 0 -4 -18 -11 -41 -15 -22 -4 -73 -23 -112 -43 -128 -63
-235 -195 -271 -333 -13 -52 -15 -54 -44 -52 -54 5 -139 42 -184 82 -71 63
-101 130 -106 233 -4 77 -2 92 22 145 44 94 123 164 216 189 57 16 89 16 170
3z m8025 -20 c67 -31 131 -97 162 -166 32 -69 36 -169 10 -255 -16 -54 -19
-57 -55 -63 -109 -17 -166 -28 -250 -51 -52 -13 -114 -24 -138 -24 -44 0 -44
0 -37 28 5 15 8 68 8 117 -1 102 -25 190 -76 270 -29 46 -29 48 -12 67 29 32
94 74 143 92 64 23 180 16 245 -15z m1660 0 c117 -43 197 -158 203 -289 8
-157 -79 -282 -232 -333 -80 -27 -90 -24 -103 32 -41 175 -198 333 -376 381
l-48 13 33 34 c40 42 137 113 196 142 89 45 236 54 327 20z m-7268 -117 c58
-30 109 -77 138 -127 l25 -42 -35 -69 c-46 -90 -69 -197 -60 -289 l6 -70 -63
1 c-50 2 -86 11 -173 47 -60 25 -147 55 -191 67 -92 25 -95 29 -114 128 -31
153 63 311 219 369 55 21 195 12 248 -15z m4924 -4 c115 -52 190 -169 190
-295 0 -42 -7 -87 -18 -117 l-18 -49 -88 -23 c-48 -13 -132 -43 -185 -65 -72
-32 -114 -43 -163 -46 l-67 -5 1 99 c0 111 -17 184 -65 276 l-31 57 29 47 c35
56 109 115 173 137 67 23 172 16 242 -16z m-4233 -163 c60 -18 140 -79 172
-130 l23 -37 -41 -41 c-85 -88 -133 -195 -147 -330 -8 -77 -4 -76 -110 -29
-33 14 -114 44 -179 67 -114 39 -120 43 -132 75 -7 19 -13 69 -13 110 -1 64 3
84 28 135 34 68 50 89 103 129 83 62 192 81 296 51z m3511 -27 c123 -62 189
-179 179 -318 -8 -108 -15 -115 -148 -160 -63 -21 -146 -52 -183 -69 -100 -45
-107 -44 -107 27 0 109 -53 238 -136 328 -37 40 -43 52 -36 69 17 38 64 85
110 112 106 62 213 66 321 11z m-6037 -72 c80 -16 206 -59 282 -98 l49 -25
-63 -32 c-90 -46 -137 -80 -196 -143 -79 -84 -134 -209 -134 -305 0 -51 -10
-57 -90 -57 -122 0 -240 77 -297 192 -24 48 -28 69 -28 137 1 96 22 151 85
219 56 61 94 83 182 106 89 23 116 24 210 6z m8579 -25 c224 -86 286 -374 118
-542 -71 -71 -210 -116 -293 -95 -23 6 -26 11 -26 49 0 52 -23 134 -57 202
-53 104 -135 181 -267 248 l-68 35 63 32 c73 37 119 55 209 81 89 25 242 21
321 -10z m-5380 -153 c35 -18 62 -37 60 -43 -2 -5 -20 -15 -40 -21 -53 -16
-130 -57 -179 -96 -52 -42 -126 -139 -146 -193 -8 -22 -20 -52 -25 -67 l-10
-28 -60 30 c-32 17 -62 37 -65 46 -12 30 -6 134 10 181 33 96 108 173 202 208
20 7 71 14 113 14 67 1 84 -3 140 -31z m2191 5 c133 -60 220 -219 194 -357 -6
-32 -14 -40 -67 -67 -34 -17 -62 -29 -64 -27 -1 2 -10 27 -19 56 -23 70 -86
162 -148 216 -53 46 -150 99 -205 111 -42 9 -41 18 3 45 86 54 214 63 306 23z
m-4634 -121 c22 -7 20 -9 -28 -57 -98 -95 -150 -223 -150 -365 0 -66 7 -106
36 -206 5 -19 -1 -24 -47 -39 -156 -52 -322 13 -399 156 -33 60 -35 70 -35
154 0 102 18 153 75 218 42 48 149 112 220 131 56 15 283 20 328 8z m7105 -7
c130 -27 252 -118 300 -223 16 -36 22 -67 22 -127 0 -71 -4 -88 -33 -147 -37
-76 -82 -120 -162 -157 -46 -22 -68 -26 -135 -25 -101 1 -160 24 -151 57 29
100 36 140 36 202 0 135 -51 262 -148 366 l-53 58 38 4 c90 9 223 6 286 -8z
m-6478 -89 c33 -8 72 -19 87 -25 l27 -10 -78 -78 c-123 -124 -168 -242 -158
-415 l6 -96 -64 -17 c-133 -36 -257 -4 -344 90 -66 72 -86 124 -86 225 1 104
24 161 100 235 47 46 125 87 210 109 36 9 238 -3 300 -18z m5927 -13 c88 -33
166 -102 205 -181 23 -48 28 -70 28 -137 0 -102 -31 -171 -110 -244 -88 -79
-192 -104 -310 -74 l-70 18 3 96 c5 110 -12 190 -59 286 -29 61 -106 150 -163
190 l-29 20 82 22 c174 47 303 48 423 4z m-3794 -42 c94 -48 162 -138 200
-261 21 -70 21 -254 -1 -362 -28 -135 -56 -218 -75 -218 -31 0 -227 86 -312
136 -159 94 -253 212 -279 351 -28 147 61 307 203 363 70 28 202 24 264 -9z
m1563 -3 c67 -31 121 -83 157 -151 24 -46 27 -63 27 -147 0 -83 -3 -102 -28
-154 -53 -113 -143 -198 -300 -281 -68 -36 -254 -115 -271 -115 -10 0 -49 146
-67 250 -34 196 -19 329 50 447 54 93 110 141 196 170 61 20 170 11 236 -19z
m-3042 -98 c51 -10 95 -21 97 -23 2 -2 -24 -25 -58 -53 -147 -117 -223 -320
-186 -497 l15 -67 -41 -11 c-106 -29 -249 12 -321 93 -61 66 -89 140 -90 228
0 66 5 85 33 143 48 96 143 169 259 196 65 15 194 12 292 -9z m4589 -16 c208
-77 296 -291 195 -475 -58 -107 -166 -171 -286 -171 -40 0 -84 5 -99 11 -25 9
-26 12 -17 43 6 18 11 74 11 123 0 109 -24 195 -80 281 -37 57 -144 164 -163
164 -6 0 -8 4 -4 9 5 9 108 34 180 45 72 10 191 -3 263 -30z m3991 -208 c85
-123 135 -246 162 -396 17 -92 17 -319 0 -420 -49 -297 -20 -554 87 -770 26
-52 48 -98 50 -102 6 -13 -192 -9 -311 7 -119 16 -225 43 -289 76 -21 11 -78
53 -127 94 -50 41 -93 75 -96 75 -3 0 -2 -73 1 -162 9 -227 -19 -405 -85 -527
l-19 -35 -36 80 c-21 43 -47 100 -58 126 l-20 48 -67 -59 c-99 -88 -219 -164
-386 -246 -128 -63 -393 -165 -429 -165 -6 0 38 29 97 64 255 152 449 335 600
567 55 84 127 223 127 244 0 8 -40 29 -120 63 -4 1 -24 -23 -45 -55 -77 -116
-273 -339 -430 -488 -167 -159 -297 -277 -301 -273 -2 3 23 96 57 207 33 112
58 205 56 207 -2 2 -60 -35 -129 -84 -127 -89 -210 -133 -335 -177 -135 -47
-333 -90 -448 -96 l-50 -3 -3 282 c-1 155 -6 282 -10 282 -5 0 -42 -11 -82
-25 -138 -47 -230 -60 -436 -60 -147 0 -195 3 -207 14 -9 7 -24 11 -32 7 -24
-9 -198 39 -294 82 -97 43 -273 153 -254 159 6 2 60 -16 120 -41 182 -76 318
-96 513 -76 262 27 515 119 791 287 l106 64 244 19 c287 23 469 44 597 69 50
10 92 14 92 9 0 -5 -84 -94 -187 -197 -184 -183 -319 -299 -496 -424 -84 -59
-293 -194 -311 -200 -11 -4 51 -127 64 -127 21 0 240 110 340 170 152 92 281
190 399 304 140 136 220 245 294 398 l61 127 90 31 c124 43 323 139 421 205
303 201 506 495 592 855 l26 111 29 -28 c15 -15 50 -59 77 -97z m-12711 -211
c66 -168 180 -333 325 -471 180 -172 355 -271 682 -386 43 -15 42 -14 110
-160 137 -294 480 -600 892 -798 150 -72 143 -72 176 2 22 49 25 65 15 71
-342 204 -615 419 -863 680 -151 158 -150 157 -72 141 126 -27 273 -44 567
-69 l302 -25 97 -61 c214 -134 485 -244 701 -284 126 -24 348 -24 444 -1 38 9
122 38 187 65 66 27 119 45 119 40 0 -16 -169 -120 -261 -161 -96 -42 -243
-83 -342 -95 -34 -4 -129 -7 -212 -7 -164 0 -297 19 -419 60 -38 13 -73 24
-78 24 -4 0 -8 -127 -8 -281 l0 -282 -79 6 c-98 8 -256 39 -361 73 -154 48
-249 95 -387 190 -75 52 -137 93 -139 91 -2 -2 23 -95 57 -206 33 -112 59
-205 56 -207 -7 -7 -233 204 -393 367 -157 160 -280 303 -341 396 -20 29 -39
52 -43 51 -80 -34 -120 -55 -120 -64 0 -5 20 -50 45 -98 149 -293 398 -550
691 -715 52 -30 93 -56 91 -58 -7 -7 -194 56 -305 103 -197 83 -384 194 -507
302 l-70 61 -13 -27 c-6 -15 -33 -72 -58 -127 l-46 -100 -24 47 c-61 120 -89
301 -79 521 4 86 4 157 1 157 -4 0 -48 -34 -99 -77 -50 -42 -115 -87 -143
-100 -109 -49 -308 -83 -494 -83 -51 0 -90 3 -88 8 2 4 21 41 42 82 112 217
148 483 101 765 -58 352 12 668 201 900 l47 58 32 -119 c18 -65 46 -155 63
-199z m4678 264 c113 -35 111 -30 40 -101 -129 -132 -182 -310 -142 -481 l14
-59 -92 4 c-107 4 -166 27 -231 93 -69 68 -90 124 -90 235 0 83 4 101 27 145
26 51 94 121 139 146 83 44 225 52 335 18z m3459 -13 c66 -30 133 -95 166
-161 34 -70 35 -208 1 -276 -57 -115 -159 -185 -289 -196 -104 -8 -102 -10
-84 83 31 162 -27 341 -150 462 l-60 60 57 22 c93 34 124 40 217 35 66 -3 101
-10 142 -29z m-3150 -223 c31 -86 74 -149 152 -225 89 -84 169 -138 311 -206
l116 -56 -65 -24 c-139 -52 -208 -66 -339 -66 -120 -1 -128 1 -191 30 -88 42
-142 93 -181 171 -53 109 -41 235 34 339 32 44 113 107 131 101 5 -1 20 -30
32 -64z m2676 -22 c58 -66 82 -138 77 -236 -7 -132 -68 -219 -198 -285 -73
-37 -157 -49 -267 -39 -81 8 -228 47 -298 78 -35 16 -38 19 -20 26 146 56 315
159 407 249 86 85 125 147 171 279 7 17 9 17 48 -5 23 -13 59 -43 80 -67z
m10361 -980 c42 -11 100 -32 129 -47 74 -37 159 -125 196 -204 65 -135 63
-111 63 -954 0 -421 -2 -766 -5 -766 -2 0 -27 9 -55 20 -72 28 -207 50 -314
50 -449 0 -1016 -230 -1771 -718 -212 -138 -464 -292 -475 -292 -9 0 -40 102
-40 133 0 14 11 39 25 55 67 80 101 195 91 309 -6 76 -61 261 -82 278 -19 16
-274 519 -274 542 0 12 -6 23 -14 26 -7 3 -34 45 -59 94 -33 64 -63 105 -109
150 -62 59 -170 136 -209 148 -27 9 -23 25 6 25 14 0 25 4 25 9 0 5 66 44 148
86 164 86 346 190 559 318 418 252 867 473 1228 605 165 60 382 117 555 145
14 2 88 5 166 6 110 1 157 -3 216 -18z m-22877 -11 c269 -26 602 -123 1040
-305 365 -152 1049 -499 1065 -541 7 -16 14 -21 30 -17 14 4 73 -24 190 -92
94 -53 172 -101 175 -105 3 -4 -23 -18 -58 -31 -34 -12 -98 -40 -142 -62 -191
-95 -294 -186 -361 -320 -25 -48 -51 -90 -59 -94 -8 -3 -15 -14 -15 -26 0 -22
-254 -526 -273 -542 -18 -15 -66 -168 -79 -250 -8 -49 -8 -88 0 -130 5 -33 9
-61 7 -63 -1 -2 -40 21 -86 51 -226 146 -587 340 -809 435 -220 93 -483 170
-660 192 -178 21 -375 6 -490 -40 -28 -11 -53 -20 -56 -20 -2 0 -3 375 -2 833
3 777 4 835 21 882 52 143 165 224 341 244 102 12 100 12 221 1z m7989 -90
c171 -6 325 -12 341 -15 27 -5 114 -70 104 -78 -16 -13 -214 -37 -303 -37
-159 0 -395 55 -556 130 l-45 20 74 -5 c40 -3 213 -10 385 -15z m6661 5 c-62
-29 -244 -84 -342 -104 -126 -26 -272 -27 -410 -4 -57 9 -103 20 -102 23 0 3
18 19 39 36 l39 32 218 6 c120 4 277 11 348 15 72 4 155 8 185 9 54 0 55 0 25
-13z m-1183 -71 l31 -16 -29 -23 -29 -23 -17 31 c-9 18 -17 35 -18 40 0 12 29
8 62 -9z m-4700 -30 c-7 -12 -11 -13 -17 -4 -4 7 -2 16 6 21 18 11 23 4 11
-17z m337 6 c47 -1 47 -3 -88 -446 -155 -513 -272 -912 -387 -1324 -90 -323
-224 -849 -224 -878 0 -13 17 -22 66 -35 37 -10 67 -17 69 -15 1 2 23 68 48
148 25 80 158 505 295 945 138 440 302 968 365 1173 64 206 118 377 122 380 6
6 87 -9 244 -44 60 -14 71 -19 65 -33 -4 -9 -51 -144 -104 -301 -153 -453
-290 -956 -423 -1560 -62 -279 -187 -899 -202 -1003 -4 -27 -13 -51 -20 -53
-15 -6 -321 49 -620 111 -377 78 -375 78 -375 95 0 24 130 505 190 705 106
353 240 737 378 1080 140 349 344 795 460 1004 l35 63 45 -6 c25 -3 52 -6 61
-6z m4168 -135 c308 -600 618 -1391 829 -2120 73 -251 157 -576 151 -582 -20
-19 -981 -232 -994 -220 -3 3 -29 135 -59 294 -175 921 -364 1676 -584 2335
l-106 317 70 15 c145 32 228 48 231 44 3 -2 36 -107 74 -233 72 -236 295 -955
581 -1870 90 -286 166 -524 170 -528 6 -7 128 18 138 28 4 4 -89 382 -158 638
-121 453 -312 1109 -563 1930 -11 37 -18 69 -15 72 7 7 110 23 138 22 22 -2
35 -21 97 -142z m-3321 -36 c29 -8 43 -16 40 -24 -15 -40 -186 -800 -251
-1115 -176 -856 -243 -1352 -228 -1684 l6 -149 -39 6 c-21 3 -108 16 -191 28
-138 20 -153 24 -153 42 0 45 125 673 210 1057 151 683 349 1375 519 1823 12
30 22 32 87 16z m2380 -26 c37 -89 199 -586 259 -798 135 -474 279 -1088 394
-1680 66 -339 80 -419 77 -422 -4 -5 -357 -63 -379 -63 l-22 0 0 262 c0 326
-25 538 -131 1118 -70 379 -300 1445 -339 1571 -4 13 7 20 47 32 74 22 76 21
94 -20z m1354 -119 c42 -27 99 -60 127 -73 l52 -24 412 -1031 c227 -567 416
-1035 420 -1040 10 -11 129 33 129 48 0 6 -143 423 -319 926 -175 503 -321
926 -325 940 -19 69 270 -492 407 -790 117 -255 240 -546 335 -795 80 -208
162 -439 162 -456 0 -10 -43 -23 -368 -110 -145 -39 -265 -69 -268 -66 -2 2
-29 96 -58 208 -213 809 -487 1574 -802 2238 -35 74 -64 136 -64 138 0 2 19
-11 43 -30 23 -19 76 -57 117 -83z m-3369 25 c44 -17 83 -37 86 -45 3 -8 -11
-137 -31 -287 -105 -789 -211 -1780 -259 -2417 l-12 -165 -45 2 c-25 2 -134
13 -242 25 -175 19 -198 23 -198 39 0 10 47 251 105 536 284 1393 491 2343
511 2343 2 0 41 -14 85 -31z m-1717 -56 c-342 -737 -604 -1472 -810 -2273 -26
-102 -48 -186 -49 -187 -1 -2 -486 121 -595 151 -36 10 -45 17 -43 34 9 78
274 763 459 1183 77 173 404 833 429 864 9 11 14 16 12 10 -14 -30 -658 -1887
-655 -1889 10 -8 129 -48 132 -45 1 2 186 463 410 1024 l408 1020 86 40 c48
22 123 63 167 92 44 29 81 53 82 53 1 0 -14 -35 -33 -77z m3420 -193 c147
-636 558 -2622 545 -2635 -7 -7 -260 -42 -366 -51 -68 -6 -83 -4 -83 7 0 74
-72 867 -116 1279 -53 504 -159 1375 -190 1568 l-6 39 73 31 c67 28 75 29 81
14 5 -9 32 -123 62 -252z m-1235 6 c41 -28 96 -71 122 -96 l48 -45 35 -1100
c20 -605 39 -1157 42 -1227 l7 -128 68 0 c38 0 70 1 70 3 1 1 20 555 44 1232
l42 1229 34 29 c87 75 297 217 321 217 3 0 8 -21 11 -47 3 -27 31 -244 61
-483 89 -701 155 -1325 200 -1875 14 -170 28 -336 31 -367 6 -56 5 -58 -22
-65 -15 -4 -278 -8 -583 -8 -443 0 -602 4 -785 18 -126 10 -232 20 -234 23
-12 12 95 1150 164 1749 41 346 123 999 131 1033 l5 23 57 -32 c31 -17 90 -55
131 -83z m6571 68 c111 -29 239 -44 372 -44 l107 0 68 -61 c79 -70 200 -153
296 -202 77 -40 76 -47 -19 -72 -113 -30 -431 -18 -720 28 -83 13 -96 22 -248
158 -5 5 -4 32 2 66 6 32 14 82 17 111 6 45 10 52 24 46 9 -4 54 -17 101 -30z
m-12355 -21 c3 -27 12 -76 19 -111 l13 -63 -51 -41 c-28 -23 -67 -57 -87 -75
-29 -28 -48 -36 -117 -48 -186 -32 -373 -47 -545 -43 -151 3 -178 7 -222 26
l-49 23 69 35 c98 50 218 132 296 202 l67 59 163 6 c161 6 294 27 384 60 22 8
43 15 47 16 4 0 10 -20 13 -46z m9928 -538 c259 15 444 47 625 107 56 19 102
29 102 24 0 -6 -16 -63 -35 -126 -26 -88 -41 -121 -62 -139 -15 -13 -50 -44
-78 -68 l-50 -44 69 37 c63 34 68 35 62 16 -19 -69 -21 -64 21 -57 453 77 792
196 1090 383 l80 50 58 -129 c32 -71 63 -129 69 -129 32 1 182 146 237 230
l16 24 56 -48 c32 -27 57 -57 57 -67 0 -12 7 -19 19 -19 24 0 109 -94 146
-162 l28 -52 -44 -39 c-69 -62 -151 -97 -229 -97 -94 0 -193 -24 -267 -65 -35
-19 -70 -35 -78 -35 -8 0 -15 -6 -15 -12 0 -7 -24 -33 -53 -58 -79 -67 -137
-140 -184 -231 -55 -107 -75 -196 -75 -336 l1 -112 -272 -90 c-404 -133 -911
-291 -935 -291 -5 0 -42 91 -82 203 -181 502 -378 961 -629 1463 l-176 351
170 7 c93 3 188 9 210 14 l40 7 3 -258 2 -258 103 6z m-7410 486 c43 -6 119
-11 168 -11 49 0 89 -1 89 -3 0 -1 -64 -131 -143 -287 -267 -532 -459 -990
-701 -1671 l-27 -77 -117 35 c-217 65 -517 162 -752 243 -129 45 -249 86 -266
92 l-31 10 0 127 c1 143 -14 214 -67 326 -43 90 -109 177 -185 243 -34 30 -61
60 -61 68 0 8 -5 12 -11 9 -6 -4 -37 7 -69 24 -91 49 -137 61 -257 70 -91 7
-120 13 -157 34 -68 38 -126 89 -126 113 0 43 126 204 161 204 12 0 19 7 19
19 0 10 24 39 54 65 52 44 76 56 76 37 0 -5 20 -36 44 -69 41 -55 173 -172
194 -172 5 0 35 57 67 128 32 70 58 128 59 129 1 0 37 -21 81 -49 217 -135
512 -257 775 -320 101 -24 343 -68 349 -63 2 2 -2 18 -8 36 -6 18 -10 34 -8
36 2 1 30 -11 63 -28 41 -21 52 -24 36 -10 -129 114 -120 101 -157 228 -19 65
-35 121 -35 125 0 4 24 -2 53 -13 153 -61 436 -112 675 -123 l102 -4 0 260 c0
242 1 259 18 254 9 -3 52 -10 95 -15z m10996 -356 c131 -34 247 -47 466 -55
127 -5 273 -16 325 -25 116 -19 359 -82 378 -97 7 -6 24 -13 37 -14 32 -3 182
-74 242 -114 83 -56 123 -102 169 -192 48 -96 54 -134 26 -187 -25 -49 -60
-71 -125 -78 l-58 -6 -149 149 -150 148 -68 -67 -69 -68 149 -146 c81 -81 148
-154 148 -164 0 -10 10 -21 23 -24 20 -7 207 -182 207 -196 0 -11 -94 -57
-155 -76 -79 -24 -322 -24 -440 1 l-79 16 -320 320 -321 320 -67 -67 -68 -67
42 -43 c23 -23 40 -45 37 -47 -2 -2 -33 -12 -68 -21 -78 -20 -165 -63 -246
-120 -60 -43 -208 -189 -239 -238 l-17 -26 -167 111 c-92 60 -188 122 -214
136 -28 16 -52 38 -59 55 -10 23 -16 27 -38 23 -14 -4 -33 -2 -41 4 -11 7 -21
3 -40 -19 -19 -22 -66 -44 -190 -91 -158 -59 -167 -61 -204 -49 -56 19 -129
89 -156 151 -28 66 -40 186 -19 199 27 17 85 29 194 38 98 9 117 14 193 51 62
31 105 62 164 120 l81 78 -5 73 c-3 49 -12 89 -27 117 -12 24 -20 46 -18 48 3
3 42 0 88 -6 229 -28 470 -22 596 15 65 19 142 71 168 112 11 18 22 32 24 33
2 0 29 -7 60 -15z m-14707 -35 c34 -50 95 -85 194 -111 67 -19 107 -22 264
-22 102 0 230 5 284 12 54 6 100 10 102 8 2 -2 -8 -30 -21 -63 -16 -39 -25
-79 -25 -119 l0 -60 81 -77 c58 -57 103 -89 163 -119 76 -37 93 -42 197 -50
63 -5 133 -16 157 -25 l42 -16 0 -58 c0 -133 -71 -243 -186 -289 -29 -11 -43
-7 -210 64 -98 41 -184 82 -189 89 -13 17 -52 14 -68 -5 -6 -9 -82 -59 -167
-112 -85 -52 -191 -120 -234 -150 l-79 -55 -68 82 c-138 165 -299 273 -460
307 l-51 11 43 44 43 44 -69 70 -70 70 -321 -321 -320 -320 -80 -14 c-133 -24
-288 -29 -383 -11 -78 14 -211 67 -211 85 0 15 198 201 214 201 9 0 16 8 16
19 0 12 59 76 152 165 l153 146 -70 70 -69 70 -151 -150 c-144 -143 -153 -150
-191 -150 -65 1 -122 33 -144 82 -28 63 -25 88 24 187 49 96 98 148 200 210
121 73 412 178 446 160 9 -4 21 -2 31 7 31 28 223 54 464 64 217 9 422 34 485
59 41 16 54 12 82 -29z m16664 -1136 c6 -25 -12 -94 -25 -94 -5 0 -25 25 -46
56 -20 31 -86 104 -146 163 l-110 105 45 23 c25 13 60 38 78 56 l33 33 83
-159 c45 -88 85 -170 88 -183z m-18429 244 l42 -24 -114 -113 c-63 -62 -128
-135 -146 -162 -17 -27 -35 -49 -40 -49 -4 0 -13 19 -20 42 -11 43 -10 45 77
220 l88 178 36 -34 c19 -19 54 -45 77 -58z m14773 52 c0 -29 62 -145 102 -193
22 -27 39 -49 37 -51 -2 -2 -58 -22 -124 -46 -66 -23 -126 -45 -134 -48 -22
-8 -9 158 18 228 31 82 80 157 92 139 5 -8 9 -21 9 -29z m-11322 -63 c17 -34
35 -82 41 -107 11 -45 15 -190 6 -190 -3 0 -66 23 -140 51 l-135 52 35 38 c50
56 81 108 107 182 21 60 24 65 39 51 9 -8 31 -43 47 -77z m13373 -53 c48 -14
69 -31 186 -147 l133 -131 -74 -23 c-126 -39 -291 -165 -403 -307 l-31 -38
-101 90 c-56 50 -146 127 -201 170 l-99 79 53 64 c170 206 364 294 537 243z
m-15217 -42 c87 -44 178 -119 257 -215 l49 -58 -112 -91 c-62 -50 -152 -127
-200 -170 l-88 -80 -27 34 c-142 172 -296 285 -439 322 l-44 11 129 129 c153
153 185 170 315 162 67 -4 92 -10 160 -44z m-3549 -16 c226 -53 449 -138 713
-272 164 -83 498 -276 562 -324 l25 -19 -29 -56 c-75 -144 -226 -200 -541
-199 -182 0 -297 15 -455 61 -295 84 -592 239 -768 399 -113 102 -199 247
-190 321 2 23 14 34 68 61 101 51 171 62 350 58 121 -3 179 -10 265 -30z
m22960 19 c39 -8 99 -29 135 -47 75 -38 82 -56 55 -138 -100 -301 -699 -638
-1245 -701 -124 -14 -301 -7 -415 16 -149 31 -230 82 -281 180 l-29 56 25 19
c14 11 105 68 204 126 309 186 623 335 881 418 76 25 266 70 330 79 75 10 275
6 340 -8z m-18255 -122 c100 -42 160 -72 160 -81 0 -10 7 -13 21 -9 14 4 85
-20 193 -63 715 -285 1561 -558 2325 -750 607 -152 1332 -297 1776 -355 273
-36 245 -25 246 -93 2 -104 14 -116 28 -29 12 64 17 77 33 77 10 0 139 -13
286 -29 1031 -114 1807 -117 2582 -11 79 11 147 20 151 20 3 0 12 -35 20 -77
l14 -78 5 80 5 80 270 46 c851 146 1842 388 2795 684 322 100 985 322 1240
415 124 46 243 85 265 88 22 2 44 10 50 18 9 11 319 134 338 134 11 0 279
-172 398 -256 459 -322 906 -780 875 -897 -3 -11 -1 -28 4 -37 13 -24 -13
-118 -46 -172 -39 -64 -133 -156 -186 -184 -127 -65 -935 -360 -1432 -523
-622 -204 -1567 -471 -1620 -457 -11 3 -24 -1 -30 -9 -13 -16 -620 -157 -901
-209 -44 -8 -150 -28 -235 -45 -1041 -208 -2535 -357 -3365 -337 -1411 35
-2749 208 -4180 540 -132 31 -254 63 -272 72 -17 9 -36 14 -41 10 -14 -9 -621
155 -1037 281 -596 179 -1294 425 -1865 657 -168 68 -189 80 -229 123 -24 26
-57 76 -73 110 -26 55 -29 70 -25 135 5 92 19 122 98 228 137 183 455 472 752
684 136 97 426 286 440 286 4 0 79 -30 167 -67z m15460 -211 c12 -24 19 -49
17 -55 -2 -7 2 -16 8 -22 7 -5 27 -50 44 -100 17 -49 39 -113 50 -141 18 -46
18 -52 4 -82 -51 -106 -241 -117 -486 -28 -163 60 -161 58 -180 139 -9 40 -35
107 -57 150 l-40 77 104 0 c175 0 314 36 424 110 l57 39 17 -22 c10 -12 27
-42 38 -65z m-18208 52 c88 -74 223 -114 411 -121 75 -3 137 -9 137 -12 0 -4
-11 -23 -25 -43 -32 -47 -59 -118 -74 -190 l-12 -56 -85 -36 c-266 -111 -449
-124 -536 -36 -44 44 -47 69 -19 138 11 26 32 82 47 125 15 44 33 85 41 92 7
8 13 18 12 22 -4 21 4 42 31 91 17 28 33 52 36 52 3 0 20 -11 36 -26z m17285
-159 c115 -34 195 -153 197 -294 1 -42 5 -79 9 -82 4 -3 11 -31 14 -62 l6 -57
-73 0 c-105 0 -200 -26 -328 -91 l-113 -57 -25 51 c-27 54 -84 133 -167 229
l-49 57 40 49 c72 86 186 186 248 219 99 53 160 62 241 38z m-16253 -25 c89
-38 199 -130 289 -242 l38 -47 -89 -110 c-49 -61 -103 -137 -120 -170 l-32
-59 -104 54 c-122 64 -230 94 -334 94 l-75 0 7 57 c4 32 10 60 14 63 4 3 8 40
9 83 2 96 31 166 96 231 77 76 190 94 301 46z m16940 -534 c135 -28 280 -19
369 24 22 11 43 18 45 15 7 -7 -28 -96 -54 -133 -77 -116 -314 -177 -534 -138
l-65 11 -3 38 c-2 21 1 44 7 51 8 9 7 21 -3 42 -8 16 -17 61 -21 100 l-7 71
96 -33 c52 -18 129 -40 170 -48z m-17569 -3 c-4 -43 -13 -88 -22 -101 -11 -18
-12 -27 -3 -37 6 -7 10 -31 8 -51 -3 -35 -6 -39 -43 -48 -22 -5 -94 -9 -160
-10 -100 -1 -133 3 -195 23 -91 28 -119 42 -166 83 -36 31 -76 100 -88 151 -8
32 -5 32 37 10 124 -64 338 -55 552 25 44 16 82 30 84 31 2 0 0 -34 -4 -76z
m17115 -143 c20 -11 22 -17 17 -63 -11 -86 -49 -147 -188 -297 -140 -151 -185
-182 -285 -201 -59 -11 -145 1 -196 27 l-28 14 51 63 c58 71 115 183 125 243
8 54 9 55 84 103 175 113 336 156 420 111z m-16713 -15 c66 -21 203 -92 266
-139 9 -8 24 -39 32 -71 22 -83 59 -156 121 -235 l55 -70 -36 -16 c-63 -26
-130 -34 -192 -23 -97 18 -146 52 -276 194 -136 148 -159 181 -181 255 -24 81
-21 99 17 115 48 21 106 18 194 -10z m16942 -261 c10 -9 -45 -3 -59 6 -11 7
-5 8 20 4 19 -4 37 -8 39 -10z m-17314 -4 c-11 -5 -31 -8 -45 -8 -23 0 -22 1
5 8 42 11 65 11 40 0z m4580 -1455 c160 -36 298 -65 308 -65 12 0 17 -8 17
-29 0 -26 -4 -29 -57 -40 -153 -30 -329 11 -468 110 -57 41 -111 89 -100 89 6
0 141 -29 300 -65z m8311 12 c-112 -94 -236 -145 -372 -154 -101 -7 -216 12
-212 35 2 11 65 29 243 68 132 28 267 59 300 67 84 21 85 20 41 -16z m-7583
-161 c181 -35 589 -104 742 -126 44 -7 82 -14 86 -15 3 -2 0 -43 -5 -92 l-11
-87 -120 -38 c-174 -55 -261 -66 -366 -45 -156 31 -288 114 -447 282 -72 76
-92 103 -92 126 0 19 5 29 15 29 9 0 98 -16 198 -34z m6807 -6 c0 -25 -164
-197 -250 -262 -89 -68 -190 -115 -285 -135 -102 -20 -201 -9 -370 45 l-120
38 -8 78 c-5 43 -7 79 -5 81 2 2 122 22 268 45 146 23 369 61 495 85 275 51
275 51 275 25z m-5565 -190 c215 -26 589 -66 815 -85 101 -9 185 -17 186 -18
2 -2 24 -325 24 -353 0 -14 -28 -41 -87 -86 -200 -149 -283 -182 -458 -182
-106 0 -129 3 -200 27 -180 64 -380 247 -489 449 l-34 63 13 105 c7 58 14 106
14 108 1 2 13 1 29 -2 15 -3 99 -15 187 -26z m4343 -87 l10 -98 -35 -65 c-75
-139 -216 -293 -346 -378 -108 -71 -196 -96 -332 -97 -163 0 -244 28 -414 145
-130 89 -123 75 -111 216 5 65 10 147 10 182 0 41 4 64 13 67 6 2 73 9 147 15
230 19 635 60 819 84 97 13 188 24 202 25 25 1 26 0 37 -96z m-2868 -43 c371
-20 855 -24 1159 -10 160 7 294 10 297 8 3 -3 0 -86 -7 -184 -13 -197 -16
-209 -94 -319 -118 -166 -314 -299 -526 -357 -72 -20 -107 -23 -244 -22 -144
0 -169 3 -250 28 -237 71 -429 217 -553 421 -29 47 -32 61 -42 190 -17 235
-18 254 -13 258 2 3 21 3 41 1 20 -2 125 -9 232 -14z"/>
<path d="M27715 46238 c-68 -86 -268 -281 -361 -352 -124 -94 -275 -167 -359
-174 -72 -5 -69 -2 -80 -96 l-7 -59 91 7 c342 26 635 226 839 572 23 38 42 73
42 76 0 7 -111 78 -120 78 -3 -1 -23 -24 -45 -52z"/>
<path d="M28541 45180 c-182 -646 -226 -776 -336 -1006 -62 -130 -119 -224
-176 -289 l-30 -34 41 -55 c33 -44 46 -54 59 -47 34 18 198 198 243 266 97
148 164 312 194 475 15 82 33 647 22 710 -4 21 -6 18 -17 -20z"/>
<path d="M28791 41903 c-259 -642 -264 -653 -332 -668 -20 -5 -29 -13 -29 -26
0 -18 9 -19 170 -19 159 0 170 1 170 19 0 14 -10 19 -45 24 -54 6 -85 30 -85
66 0 14 15 69 34 121 l33 95 194 0 193 0 34 -80 c40 -96 51 -165 29 -183 -8
-7 -38 -15 -66 -19 -41 -5 -51 -9 -51 -24 0 -18 13 -19 270 -19 263 0 270 0
270 20 0 13 -7 20 -19 20 -30 0 -70 38 -98 93 -14 29 -120 273 -234 542 -184
436 -210 490 -231 493 -22 3 -34 -24 -207 -455z m191 -110 c43 -103 76 -188
74 -190 -2 -2 -73 -2 -159 -1 l-155 3 69 175 c38 96 71 181 74 188 2 6 8 12
12 12 4 0 43 -84 85 -187z"/>
<path d="M31141 42345 c-219 -50 -390 -218 -442 -435 -19 -77 -16 -250 4 -329
55 -209 231 -365 457 -407 207 -39 375 14 538 169 l62 60 -21 23 -22 23 -68
-63 c-116 -107 -230 -153 -359 -144 -131 10 -226 93 -271 238 -69 221 -38 581
62 726 65 95 200 130 324 83 84 -31 186 -134 243 -246 32 -61 48 -83 63 -83
18 0 19 8 19 200 0 190 -1 200 -19 200 -11 0 -28 -15 -40 -35 -11 -20 -28 -38
-37 -42 -9 -3 -69 11 -133 31 -138 45 -256 55 -360 31z"/>
<path d="M27350 42320 c0 -11 6 -20 13 -20 37 0 89 -24 105 -48 15 -23 18 -68
22 -417 5 -369 7 -393 27 -443 65 -160 239 -245 468 -229 192 14 299 88 358
245 20 53 22 81 27 437 3 209 9 388 14 398 10 21 48 42 94 52 22 5 32 12 32
26 0 18 -9 19 -185 19 -175 0 -185 -1 -185 -19 0 -14 10 -21 37 -26 58 -11 93
-33 109 -70 18 -44 20 -674 3 -757 -32 -149 -134 -228 -293 -228 -112 1 -190
59 -223 168 -16 50 -18 101 -18 427 0 418 1 423 66 449 22 9 53 16 69 16 23 0
30 4 30 20 0 20 -7 20 -285 20 -278 0 -285 0 -285 -20z"/>
<path d="M29700 41631 c0 -6 6 -11 14 -11 8 0 22 -7 30 -16 13 -13 16 -44 16
-180 0 -172 -6 -204 -40 -204 -11 0 -20 -4 -20 -10 0 -17 229 -12 289 6 182
54 206 308 37 396 -35 19 -62 23 -183 26 -101 3 -143 1 -143 -7z m275 -44 c19
-19 38 -52 45 -78 16 -58 8 -185 -13 -226 -21 -40 -67 -65 -110 -61 l-32 3 -3
185 c-1 101 0 190 2 197 3 7 21 13 42 13 27 0 44 -8 69 -33z"/>
<path d="M30180 41630 c0 -5 8 -10 18 -10 38 0 42 -18 42 -200 0 -182 -4 -200
-42 -200 -10 0 -18 -4 -18 -10 0 -6 70 -10 190 -10 189 0 190 0 194 23 18 82
23 117 17 117 -3 0 -18 -20 -32 -43 -15 -26 -41 -50 -61 -60 -42 -20 -119 -22
-136 -5 -7 7 -12 44 -12 95 l0 83 28 0 c38 0 69 -24 77 -60 13 -61 25 -27 25
75 0 100 -10 134 -24 80 -10 -38 -42 -65 -76 -65 l-31 0 3 88 3 87 68 0 c65 0
70 -2 98 -33 16 -18 29 -41 29 -52 0 -11 5 -20 10 -20 6 0 10 28 10 65 l0 65
-190 0 c-120 0 -190 -4 -190 -10z"/>
<path d="M26683 40389 c-62 -51 -113 -94 -113 -98 0 -3 219 -276 486 -606 268
-330 495 -611 505 -623 l18 -24 108 88 c59 48 112 91 116 95 7 5 -920 1165
-992 1241 -15 16 -23 12 -128 -73z"/>
<path d="M31287 39863 c-274 -338 -500 -620 -503 -627 -6 -16 217 -200 227
-188 4 4 232 285 508 625 l500 618 -32 28 c-46 39 -180 146 -192 153 -5 3
-234 -271 -508 -609z"/>
<path d="M27793 39972 c-56 -43 -107 -82 -113 -88 -8 -8 44 -85 181 -270 105
-142 196 -258 201 -256 16 4 228 163 228 171 0 12 -374 514 -385 517 -5 1 -56
-32 -112 -74z"/>
<path d="M30481 39789 c-106 -143 -190 -263 -187 -266 3 -3 56 -43 118 -89
l113 -83 25 31 c14 17 102 136 197 263 l171 233 -118 86 c-64 47 -120 86 -122
86 -3 0 -91 -117 -197 -261z"/>
<path d="M32452 39180 c-580 -335 -1063 -615 -1074 -622 -19 -13 -17 -18 53
-141 41 -70 77 -126 80 -125 25 9 2139 1234 2139 1240 0 5 -137 249 -143 254
-1 1 -476 -272 -1055 -606z"/>
<path d="M25002 39658 c-52 -92 -67 -126 -59 -134 15 -15 2108 -1221 2125
-1226 8 -2 42 47 86 123 l73 126 -1067 617 c-587 339 -1072 616 -1078 616 -5
0 -41 -55 -80 -122z"/>
<path d="M31634 39347 c-210 -188 -400 -359 -423 -380 l-42 -38 98 -107 c54
-59 101 -107 104 -107 8 0 825 731 834 746 5 7 -95 128 -179 216 -8 8 -106
-74 -392 -330z"/>
<path d="M26465 39573 l-95 -107 22 -22 c13 -12 203 -183 423 -379 l400 -358
43 49 c159 179 156 174 141 188 -87 83 -823 736 -830 736 -4 0 -51 -48 -104
-107z"/>
<path d="M25701 38287 c-28 -77 -50 -141 -48 -142 11 -8 1248 -447 1251 -444
9 12 97 272 92 276 -2 3 -274 101 -603 219 -329 118 -608 218 -619 223 -21 9
-25 2 -73 -132z"/>
<path d="M32196 38199 c-335 -120 -611 -220 -612 -222 -4 -4 90 -264 98 -272
5 -5 1235 429 1247 441 2 2 -18 64 -45 139 -34 93 -54 135 -64 134 -8 0 -289
-99 -624 -220z"/>
<path d="M24600 37155 l0 -145 1240 0 1240 0 0 145 0 145 -1240 0 -1240 0 0
-145z"/>
<path d="M31510 37155 l0 -145 1240 0 1240 0 0 145 0 145 -1240 0 -1240 0 0
-145z"/>
<path d="M31561 36549 c-34 -73 -58 -135 -54 -139 12 -11 1169 -570 1179 -570
10 0 141 257 134 263 -6 4 -1168 567 -1184 573 -8 3 -36 -45 -75 -127z"/>
<path d="M40558 24646 c-69 -20 -408 -178 -402 -188 3 -4 22 -5 42 -2 29 4 41
2 54 -13 28 -31 238 -486 238 -515 0 -17 -10 -37 -27 -52 -15 -14 -25 -28 -22
-31 8 -7 303 132 308 146 2 7 -9 8 -33 3 -28 -5 -41 -2 -56 11 -18 16 -124
224 -118 231 2 1 81 -40 177 -93 l173 -95 93 43 c85 39 108 59 69 59 -13 0
-177 85 -302 157 l-43 24 36 40 c61 68 72 134 32 203 -40 71 -125 99 -219 72z
m2 -71 c34 -18 74 -81 91 -146 11 -41 10 -50 -5 -73 -19 -29 -92 -86 -111 -86
-13 0 -125 235 -125 262 0 20 63 57 98 58 13 0 36 -7 52 -15z"/>
<path d="M39738 24271 c-148 -69 -268 -129 -268 -133 0 -4 19 -5 43 -2 34 5
45 2 60 -13 28 -31 237 -485 237 -515 0 -17 -10 -37 -27 -52 -15 -14 -25 -28
-22 -31 3 -3 127 52 276 121 l270 126 -26 104 c-14 57 -30 103 -36 101 -5 -2
-13 -30 -16 -63 -10 -104 -56 -167 -161 -220 -79 -40 -84 -36 -155 106 -34 69
-62 128 -63 131 0 9 73 29 105 29 19 0 41 -13 73 -45 39 -39 62 -54 62 -41 0
16 -138 298 -146 297 -5 -1 -7 -28 -6 -61 4 -70 -8 -96 -63 -130 -20 -12 -37
-21 -39 -19 -16 22 -106 230 -106 247 0 18 13 29 65 53 116 55 171 52 241 -13
24 -22 47 -38 51 -34 6 5 -61 160 -77 177 -3 3 -125 -51 -272 -120z"/>
<path d="M39195 23999 c-54 -13 -395 -171 -390 -180 3 -4 22 -5 43 -2 28 4 41
0 55 -14 28 -31 237 -485 237 -515 0 -17 -10 -37 -27 -52 -15 -14 -25 -28 -22
-31 8 -7 324 141 375 176 117 80 152 182 94 276 -29 49 -73 68 -157 67 l-71 0
29 34 c36 40 49 72 49 115 0 38 -29 90 -63 111 -31 21 -102 28 -152 15z m13
-91 c63 -66 81 -160 38 -202 -12 -13 -37 -31 -55 -40 l-32 -17 -55 118 c-59
125 -60 136 -13 160 43 23 82 16 117 -19z m156 -278 c44 -39 76 -108 76 -166
0 -39 -5 -51 -31 -75 -36 -33 -75 -46 -98 -33 -13 8 -138 243 -140 265 -2 12
75 37 116 38 34 1 49 -5 77 -29z"/>
<path d="M18546 24672 c-3 -5 8 -19 24 -31 19 -14 30 -31 30 -46 0 -23 -201
-460 -236 -513 -14 -22 -21 -24 -60 -18 -24 3 -44 2 -44 -3 0 -4 120 -65 267
-135 l268 -127 23 28 c54 67 102 142 94 147 -5 3 -24 -6 -42 -19 -87 -64 -184
-71 -286 -19 -32 16 -62 36 -67 44 -11 19 104 270 123 270 7 0 30 -18 53 -40
l40 -41 -6 -70 c-4 -43 -2 -69 4 -67 8 3 149 290 149 304 0 13 -22 -1 -57 -35
-22 -22 -51 -43 -66 -46 -28 -8 -113 17 -110 31 1 5 27 62 57 127 63 133 64
133 149 91 117 -60 142 -96 135 -194 -3 -40 -1 -60 7 -60 6 0 29 40 52 89 l40
89 -260 123 c-305 146 -274 132 -281 121z"/>
<path d="M19226 24351 c-3 -4 4 -25 14 -47 11 -21 20 -46 20 -56 0 -19 -197
-441 -226 -486 -14 -21 -22 -24 -55 -19 -21 3 -41 2 -43 -2 -6 -10 192 -107
200 -98 4 3 -8 20 -26 37 -26 24 -31 36 -27 58 8 41 190 423 198 414 3 -4 43
-158 89 -342 45 -184 89 -341 96 -349 12 -13 20 -1 58 80 164 349 224 472 240
490 14 17 25 20 52 16 65 -11 44 13 -52 58 -102 47 -134 51 -84 8 19 -16 30
-34 30 -51 0 -25 -139 -332 -150 -332 -3 0 -35 117 -70 261 -36 143 -67 264
-70 269 -10 15 -189 100 -194 91z"/>
<path d="M22747 22623 c-4 -3 6 -14 22 -24 16 -10 32 -27 36 -38 4 -14 -28
-100 -100 -271 -116 -271 -115 -270 -186 -256 -22 4 -29 2 -27 -6 5 -14 90
-52 375 -168 l193 -79 55 86 c62 94 62 122 1 74 -86 -69 -190 -78 -300 -28
-47 22 -56 30 -56 52 0 34 89 245 104 245 6 0 26 -9 44 -20 43 -27 66 -80 57
-136 -3 -23 -2 -45 3 -48 11 -6 18 9 84 173 52 130 53 171 3 105 -36 -47 -79
-65 -129 -54 -21 5 -42 12 -47 17 -5 5 12 58 39 123 45 107 51 115 78 118 37
3 159 -63 188 -102 16 -21 21 -42 21 -92 0 -39 4 -64 11 -64 6 0 26 40 46 89
l36 90 -137 55 c-75 30 -194 79 -265 110 -137 59 -139 60 -149 49z"/>
<path d="M36167 22428 c-4 -46 -7 -166 -8 -268 -1 -269 -9 -343 -38 -374 -14
-14 -21 -29 -18 -32 9 -9 207 68 201 78 -3 5 -22 5 -43 2 -52 -8 -63 8 -59 92
l3 68 105 42 104 42 32 -27 c47 -38 77 -79 70 -96 -3 -8 -19 -23 -36 -34 -18
-10 -27 -22 -21 -25 14 -9 311 116 311 132 0 8 -8 10 -23 7 -31 -8 -71 23
-256 196 -254 238 -299 279 -309 279 -5 0 -12 -37 -15 -82z m133 -233 c46 -46
82 -86 79 -89 -2 -2 -43 -20 -91 -39 l-88 -35 0 124 c0 68 3 124 8 124 4 0 45
-38 92 -85z"/>
<path d="M23440 22342 c0 -5 14 -18 30 -30 19 -15 30 -31 30 -47 0 -28 -163
-466 -187 -503 -12 -20 -21 -23 -59 -20 -58 4 -57 -13 4 -36 104 -40 512 -186
519 -186 8 0 113 180 113 193 0 16 -26 4 -63 -29 -62 -56 -119 -77 -191 -72
-34 3 -82 15 -108 28 -40 18 -48 27 -48 50 0 34 167 489 189 514 13 14 25 17
58 12 86 -11 48 13 -112 73 -175 65 -175 65 -175 53z"/>
<path d="M35680 22305 c-10 -26 -23 -31 -108 -39 -74 -7 -153 -46 -188 -91
-23 -31 -29 -50 -32 -106 -4 -60 -1 -74 22 -113 36 -61 86 -83 232 -102 66 -8
134 -20 152 -25 65 -21 85 -120 33 -168 -30 -28 -90 -51 -133 -51 -43 0 -127
50 -161 96 -31 42 -57 56 -57 32 0 -28 73 -218 84 -218 6 0 16 10 21 23 9 19
20 23 80 28 222 21 349 172 274 327 -38 78 -85 97 -294 122 -115 14 -147 27
-165 69 -34 84 58 165 161 142 43 -10 119 -60 141 -93 11 -16 19 -20 27 -13
11 11 -55 205 -71 205 -5 0 -13 -11 -18 -25z"/>
<path d="M24390 22013 c0 -5 14 -19 30 -31 20 -15 30 -31 30 -48 0 -30 -147
-503 -162 -521 -6 -7 -30 -13 -54 -13 -24 0 -44 -4 -44 -10 0 -5 1 -10 3 -10
2 0 84 -25 183 -56 153 -48 191 -56 264 -58 141 -2 205 46 205 154 0 67 -17
97 -83 145 -22 17 -41 33 -41 38 -1 4 17 7 40 7 87 0 142 53 142 137 0 91 -71
140 -316 214 -89 27 -170 52 -179 55 -10 3 -18 1 -18 -3z m317 -123 c52 -31
56 -109 11 -191 -31 -55 -69 -68 -139 -49 l-36 10 33 112 c19 61 39 117 45
125 16 19 49 16 86 -7z m-111 -279 c22 -10 50 -31 62 -46 43 -55 19 -184 -43
-233 -49 -39 -146 -22 -153 26 -5 31 68 272 82 272 6 0 29 -9 52 -19z"/>
<path d="M34473 21902 c-84 -25 -153 -49 -153 -54 0 -4 17 -8 38 -8 25 0 45
-7 54 -17 9 -10 48 -132 88 -271 67 -238 71 -254 56 -277 -8 -13 -25 -26 -36
-30 -11 -3 -20 -12 -20 -20 0 -11 15 -9 73 7 121 34 502 149 506 154 9 9 -22
225 -32 221 -6 -2 -18 -32 -27 -68 -20 -81 -30 -99 -81 -143 -61 -52 -185 -87
-204 -57 -18 30 -155 519 -150 539 3 13 20 30 40 39 37 18 46 34 18 32 -10 -1
-87 -22 -170 -47z"/>
<path d="M25100 21802 c0 -5 16 -19 35 -31 21 -12 35 -28 35 -39 0 -40 -133
-518 -148 -535 -13 -14 -26 -18 -54 -14 -26 4 -38 1 -38 -7 0 -11 302 -96 339
-96 22 0 10 18 -19 30 -57 23 -56 29 15 308 37 141 74 265 83 275 13 14 26 18
54 14 25 -3 38 -1 38 6 0 7 -65 29 -148 50 -81 21 -157 40 -169 43 -13 4 -23
2 -23 -4z"/>
<path d="M33895 21745 c-132 -34 -253 -65 -268 -69 -36 -9 -25 -26 17 -26 19
0 40 -8 49 -17 19 -23 140 -519 131 -545 -3 -11 -21 -26 -40 -34 -31 -13 -47
-34 -25 -34 13 0 551 137 575 146 16 6 18 14 12 67 -3 33 -6 79 -6 103 0 61
-22 49 -45 -24 -26 -85 -88 -143 -182 -172 -93 -28 -109 -23 -127 43 -33 114
-55 212 -50 217 3 3 30 5 59 5 45 0 58 -4 84 -29 16 -15 35 -41 41 -57 14 -32
30 -39 30 -11 0 9 -18 82 -39 161 -38 148 -61 188 -61 112 0 -69 -23 -109 -76
-132 -31 -14 -49 -18 -53 -10 -4 5 -19 62 -35 126 -22 89 -25 119 -17 129 15
18 101 39 166 40 61 0 94 -18 133 -74 45 -66 53 -50 26 51 -13 50 -24 92 -24
95 0 9 -43 -1 -275 -61z"/>
<path d="M25540 21688 c0 -7 15 -20 33 -28 20 -9 33 -24 35 -38 4 -30 -106
-500 -124 -529 -11 -18 -24 -23 -54 -23 -36 0 -52 -11 -32 -23 11 -7 493 -116
543 -123 l44 -6 38 89 c52 124 49 130 -27 57 -27 -25 -64 -52 -82 -60 -57 -24
-196 -15 -243 15 -19 12 -17 41 14 173 l27 117 26 -10 c78 -28 102 -59 104
-134 1 -73 24 -56 43 33 9 42 25 114 35 160 21 96 8 110 -34 37 -31 -52 -51
-65 -103 -65 -65 0 -66 3 -38 131 15 63 33 121 41 129 11 12 23 12 69 3 129
-27 177 -69 190 -164 7 -52 21 -64 30 -26 21 91 33 163 27 168 -4 4 -36 12
-72 18 -65 13 -440 97 -472 107 -11 3 -18 0 -18 -8z"/>
<path d="M33104 21563 c-9 -15 -27 -18 -105 -18 -82 0 -101 -3 -150 -27 -45
-23 -61 -37 -82 -77 -43 -79 -35 -165 21 -224 37 -40 64 -52 189 -88 134 -39
157 -50 173 -88 42 -102 -76 -192 -193 -147 -49 18 -106 73 -133 128 -13 24
-23 35 -31 30 -10 -6 -7 -35 9 -125 21 -116 34 -138 53 -94 9 21 15 22 96 18
183 -7 293 62 315 198 9 57 -17 122 -67 164 -30 26 -66 42 -152 66 -61 17
-128 39 -148 47 -85 37 -84 144 2 178 50 20 75 20 124 -3 38 -17 100 -76 122
-116 6 -10 15 -15 20 -12 14 9 -26 207 -41 207 -6 0 -16 -8 -22 -17z"/>
<path d="M26260 21532 c0 -5 7 -15 15 -22 8 -7 24 -27 35 -46 l21 -33 -46
-236 c-25 -130 -45 -240 -45 -244 0 -21 -44 -51 -75 -51 -68 0 -33 -17 77 -38
121 -23 152 -20 94 10 -59 30 -60 43 -16 274 22 114 42 209 44 211 2 3 23 -28
46 -69 24 -40 50 -86 60 -103 111 -194 255 -425 266 -429 8 -3 16 0 19 7 2 6
24 142 49 301 26 158 51 296 56 307 6 10 26 21 45 25 19 3 35 10 35 15 0 5 -1
9 -2 9 -2 0 -41 7 -88 15 -47 8 -93 15 -102 15 -24 0 -23 -17 2 -25 34 -11 50
-35 50 -73 0 -66 -43 -313 -54 -309 -8 3 -259 422 -268 449 -3 7 -80 25 -180
42 -21 4 -38 3 -38 -2z"/>
<path d="M32153 21406 c-175 -57 -273 -216 -244 -396 19 -118 79 -203 183
-257 49 -26 62 -28 163 -28 103 0 114 2 175 31 76 36 131 89 168 159 24 44 27
61 27 150 0 87 -3 107 -26 155 -36 77 -77 121 -151 161 -57 30 -72 33 -158 36
-61 2 -110 -2 -137 -11z m159 -39 c70 -42 115 -132 138 -277 30 -190 -17 -315
-125 -336 -115 -21 -193 58 -230 234 -18 87 -20 235 -3 283 35 106 134 149
220 96z"/>
<path d="M27350 21351 c0 -6 16 -17 35 -25 21 -9 36 -24 40 -38 7 -31 -60
-537 -73 -550 -6 -6 -28 -14 -49 -17 -21 -4 -38 -11 -38 -16 0 -10 364 -59
373 -51 10 11 -11 24 -47 30 -59 9 -65 27 -51 150 18 159 17 157 48 150 53
-13 80 -33 96 -74 9 -22 16 -52 16 -65 0 -14 6 -25 13 -25 10 0 17 34 26 128
7 70 15 144 18 165 8 52 -13 48 -36 -6 -26 -60 -63 -87 -117 -87 -42 0 -43 1
-39 28 2 15 9 68 15 117 15 129 13 125 69 125 128 0 221 -70 221 -166 0 -14 6
-24 14 -24 11 0 16 22 22 90 3 49 6 93 5 97 -1 5 -106 20 -234 34 -127 15
-253 30 -279 34 -33 5 -48 4 -48 -4z"/>
<path d="M31606 21324 c-59 -7 -109 -14 -111 -16 -2 -2 -35 -106 -75 -233 -40
-126 -75 -234 -80 -238 -4 -5 -51 72 -105 170 -54 98 -109 197 -122 221 l-25
44 -86 -7 c-120 -8 -162 -15 -162 -26 0 -5 11 -9 24 -9 13 0 34 -8 47 -18 21
-18 23 -33 40 -248 23 -301 23 -310 -1 -334 -11 -11 -31 -20 -45 -20 -15 0
-25 -6 -25 -14 0 -11 9 -14 33 -11 17 3 71 7 120 11 90 6 111 17 55 29 -42 9
-65 30 -72 64 -7 32 -36 393 -36 441 0 34 2 32 42 -40 226 -412 257 -465 275
-465 14 0 31 42 90 225 39 124 81 258 93 298 12 41 26 70 30 65 4 -4 19 -118
33 -253 29 -272 28 -282 -33 -295 -16 -4 -30 -11 -30 -17 0 -11 87 -6 255 16
91 11 116 28 49 34 -29 3 -38 9 -49 35 -14 36 -68 479 -63 523 2 22 12 33 41
47 39 20 49 38 20 36 -10 -1 -67 -7 -127 -15z"/>
<path d="M28020 21271 c0 -5 13 -11 30 -14 16 -4 36 -17 45 -30 13 -21 13 -48
-9 -285 -26 -291 -29 -302 -93 -302 -40 0 -44 -16 -5 -24 68 -13 325 -27 334
-18 6 6 -3 12 -26 16 -67 13 -68 18 -44 311 22 289 27 305 83 305 23 0 35 5
35 13 0 11 -37 17 -152 25 -182 14 -198 15 -198 3z"/>
<path d="M28480 21241 c0 -4 18 -27 41 -51 38 -40 40 -45 35 -89 -3 -25 -11
-136 -17 -246 -12 -222 -18 -240 -74 -251 -54 -10 -42 -20 33 -27 99 -10 172
-8 172 3 0 6 -7 10 -15 10 -33 0 -73 30 -79 57 -6 32 16 419 25 428 4 3 39
-38 79 -92 161 -214 353 -453 365 -453 15 0 21 83 31 414 6 186 8 210 25 227
11 11 28 19 39 19 11 0 20 7 20 15 0 12 -18 15 -105 15 -58 0 -105 -4 -105 -8
0 -4 16 -14 36 -21 21 -8 39 -22 45 -38 9 -26 1 -343 -10 -343 -3 0 -74 89
-158 198 -84 108 -158 204 -165 213 -10 13 -38 18 -115 22 -57 4 -103 3 -103
-2z"/>
<path d="M30297 21027 c-134 -363 -159 -419 -195 -442 -17 -11 -31 -23 -32
-27 0 -5 47 -8 105 -8 107 0 135 11 68 27 -37 9 -38 10 -37 54 0 24 8 61 17
82 l16 37 115 0 116 0 25 -51 c36 -70 31 -101 -17 -113 -21 -5 -38 -14 -38
-19 0 -9 256 -2 313 9 31 6 37 24 8 24 -34 0 -66 53 -216 350 -80 159 -151
290 -158 290 -7 0 -47 -96 -90 -213z m99 -118 c30 -61 54 -112 52 -114 -5 -4
-198 -14 -198 -10 0 9 83 235 86 235 2 0 29 -50 60 -111z"/>
<path d="M29525 21206 c-94 -29 -160 -84 -206 -168 -33 -61 -34 -67 -34 -173
0 -100 2 -115 27 -161 35 -66 105 -127 177 -156 43 -17 77 -22 151 -22 85 -1
101 2 150 27 71 37 144 106 129 123 -8 10 -22 3 -64 -30 -72 -59 -128 -79
-207 -74 -82 5 -122 32 -157 107 -48 105 -39 339 17 435 31 53 66 71 140 71
57 0 73 -4 110 -29 24 -16 62 -59 88 -97 25 -38 50 -69 55 -69 5 0 9 51 9 115
0 94 -3 115 -15 115 -8 0 -19 -9 -25 -20 -13 -25 -29 -25 -108 0 -73 23 -176
25 -237 6z"/>
<path d="M37974 16699 c-652 -44 -1248 -296 -1693 -715 -194 -182 -389 -445
-514 -692 -153 -301 -244 -605 -294 -977 -26 -199 -23 -636 6 -850 49 -363
135 -651 282 -945 243 -485 590 -832 1076 -1076 432 -217 955 -315 1515 -284
533 29 933 133 1283 335 97 56 259 167 270 185 8 13 -33 194 -67 289 -37 106
-94 222 -150 304 -80 120 -240 268 -376 351 l-61 37 -58 -47 c-235 -192 -493
-288 -846 -315 -656 -50 -1176 252 -1428 831 -87 202 -136 438 -146 710 -15
437 81 825 278 1125 66 100 251 286 345 348 158 103 344 177 539 213 151 28
472 26 612 -4 184 -40 377 -121 544 -228 l71 -45 44 26 c178 104 364 316 478
544 51 101 111 269 121 341 l7 46 -79 56 c-459 331 -1074 483 -1759 437z"/>
<path d="M19335 16285 c-71 -8 -155 -17 -185 -22 l-55 -8 -3 -1585 c-3 -1879
-2 -1921 84 -2270 61 -248 146 -448 272 -640 89 -135 112 -164 230 -283 352
-358 826 -551 1462 -598 361 -27 732 16 1050 121 314 103 553 245 773 459 117
113 183 192 270 324 166 251 280 559 339 923 l22 139 3 1699 c2 935 0 1703 -4
1707 -4 4 -75 15 -158 25 -213 26 -674 26 -870 1 -77 -10 -143 -21 -147 -23
-5 -3 -8 -740 -8 -1637 0 -1400 -2 -1646 -15 -1732 -59 -389 -255 -667 -561
-795 -232 -96 -530 -114 -797 -46 -312 79 -546 300 -650 613 -75 226 -71 108
-77 1948 l-5 1650 -130 18 c-180 24 -662 31 -840 12z"/>
<path d="M26116 16289 c-54 -5 -133 -15 -175 -22 -65 -11 -78 -16 -87 -37 -21
-45 -1944 -5139 -1944 -5149 0 -20 184 -63 345 -81 186 -21 786 -6 835 20 8 5
97 234 200 519 l184 511 975 -2 974 -3 184 -510 c102 -280 189 -513 195 -516
57 -36 624 -46 833 -15 127 18 377 65 384 71 2 2 -432 1168 -965 2590 -616
1644 -974 2587 -984 2590 -8 3 -62 12 -120 21 -125 19 -678 28 -834 13z m409
-1774 c43 -132 176 -510 296 -839 121 -330 219 -603 219 -608 0 -9 -1173 -11
-1182 -3 -3 3 92 270 210 593 145 396 239 672 291 849 42 144 79 259 83 255 3
-4 41 -115 83 -247z"/>
<path d="M30080 15240 c-225 -11 -554 -46 -622 -66 -17 -5 -18 -85 -18 -1498
l0 -1493 48 -7 c170 -22 364 -37 621 -48 481 -20 742 9 1038 113 361 128 666
396 823 724 242 506 206 1189 -84 1623 -233 349 -629 571 -1132 636 -155 20
-451 27 -674 16z m660 -682 c316 -84 508 -272 590 -574 28 -101 38 -343 20
-465 -50 -344 -245 -594 -542 -694 -147 -49 -341 -65 -576 -49 l-92 7 0 898
c0 708 3 899 13 903 6 3 120 4 252 2 219 -3 248 -5 335 -28z"/>
<path d="M32600 13685 l0 -1505 1014 0 1014 0 12 53 c27 119 23 424 -7 545
l-5 22 -669 0 -669 0 2 303 3 302 575 5 575 5 12 75 c21 135 14 423 -13 513
-5 16 -41 17 -580 17 l-574 0 0 270 0 270 645 0 644 0 11 39 c17 64 29 180 29
276 0 96 -12 212 -29 276 l-11 39 -989 0 -990 0 0 -1505z"/>
<path d="M29410 11265 l0 -315 2640 0 2640 0 0 315 0 315 -2640 0 -2640 0 0
-315z"/>
</g>
</svg>
